<mxfile host="app.diagrams.net" modified="2023-10-11T18:47:41.299Z" agent="Mozilla/5.0 (Windows NT 10.0; Win64; x64) AppleWebKit/537.36 (KHTML, like Gecko) Chrome/117.0.0.0 Safari/537.36" etag="tgBwxG2UIyhvk5XDwGaV" version="22.0.4" type="device">
  <diagram name="Page-1" id="cvuvemUWOM2B9mdwd9Fu">
    <mxGraphModel dx="1195" dy="658" grid="1" gridSize="10" guides="1" tooltips="1" connect="1" arrows="1" fold="1" page="1" pageScale="1" pageWidth="850" pageHeight="1100" math="0" shadow="0">
      <root>
        <mxCell id="0" />
        <mxCell id="1" parent="0" />
        <mxCell id="-FcrUgzOFvyiJ8CjGXV1-1" value="Grafo" style="swimlane;fontStyle=1;align=center;verticalAlign=top;childLayout=stackLayout;horizontal=1;startSize=26;horizontalStack=0;resizeParent=1;resizeParentMax=0;resizeLast=0;collapsible=1;marginBottom=0;whiteSpace=wrap;html=1;" parent="1" vertex="1">
          <mxGeometry x="200" y="20" width="160" height="80" as="geometry" />
        </mxCell>
        <mxCell id="-FcrUgzOFvyiJ8CjGXV1-2" value="&amp;nbsp;" style="text;strokeColor=none;fillColor=none;align=left;verticalAlign=top;spacingLeft=4;spacingRight=4;overflow=hidden;rotatable=0;points=[[0,0.5],[1,0.5]];portConstraint=eastwest;whiteSpace=wrap;html=1;" parent="-FcrUgzOFvyiJ8CjGXV1-1" vertex="1">
          <mxGeometry y="26" width="160" height="26" as="geometry" />
        </mxCell>
        <mxCell id="-FcrUgzOFvyiJ8CjGXV1-3" value="" style="line;strokeWidth=1;fillColor=none;align=left;verticalAlign=middle;spacingTop=-1;spacingLeft=3;spacingRight=3;rotatable=0;labelPosition=right;points=[];portConstraint=eastwest;strokeColor=inherit;" parent="-FcrUgzOFvyiJ8CjGXV1-1" vertex="1">
          <mxGeometry y="52" width="160" height="8" as="geometry" />
        </mxCell>
        <mxCell id="-FcrUgzOFvyiJ8CjGXV1-4" value="&amp;nbsp;" style="text;strokeColor=none;fillColor=none;align=left;verticalAlign=top;spacingLeft=4;spacingRight=4;overflow=hidden;rotatable=0;points=[[0,0.5],[1,0.5]];portConstraint=eastwest;whiteSpace=wrap;html=1;" parent="-FcrUgzOFvyiJ8CjGXV1-1" vertex="1">
          <mxGeometry y="60" width="160" height="20" as="geometry" />
        </mxCell>
        <mxCell id="-FcrUgzOFvyiJ8CjGXV1-8" value="" style="shape=image;verticalLabelPosition=bottom;labelBackgroundColor=default;verticalAlign=top;aspect=fixed;imageAspect=0;image=data:image/png,iVBORw0KGgoAAAANSUhEUgAAAyoAAAFiCAIAAAHhOIsuAAAAAXNSR0IArs4c6QAAAARnQU1BAACxjwv8YQUAAAAJcEhZcwAADsMAAA7DAcdvqGQAAJIKSURBVHhe7b0LdBRVujYcciFgAkZDIAJy84qAiEIEBEGIRg4YkkEEHERgJIoIAkaQIx6RQQEvGIYlHyeLQbkMsFAHRAUd/AAVVFQWXobjpx7+nBnXKA56clgsF+NiPPxP1btr967qqurqdHV3dff7rIdi11v7Xm899ValuirrLCNKaFP2r0d+ikjKzQDsp6xq2XqLhXIzAG3KZu05FpHIlp2dXVxcrJfKaHg9MI8cOZKlAwkqmbFgLYsaPGVRQ5syRlSwmTIIVps2bcQKIwz2UwaIFUYYeGqiBk9Z1EjFKdufDIaQwlO26+y+s2c31mRl7arRCMuAFRuzapaDlOGrs/uQB0Y9J+WnpcigcdeoFQO0slgip5FBW6K4yKMxhDT0sq9W9LRY/GJDQwOat07ZsWPa5WSwUWcZiUKXTY7cV6t5mRfaT1kqoC4raxwGUL+vFks9vaVWi4owKkzZFhqevqmfFi01IBuKZNXu21dfkVWb1a/hrJagnDBiymCR2bQioipRj2RoyiifO/S+RsArr7zSo0eP8vJyWrVccoWz/52zsUTlqtGW1FcD1pEkjKEpkz2j2SEMmfHo3duPyE3fRg9ZNnaqU9ZQ3w/EACrqt+w7uw9dJTfBKoy6RfNBzXGMocKn6huQC4OVvoPMwh9RA9n1BIx1Z/dpNYTTZspcqPfWKw4ePIilpYZYGFwvc6He1+hQ+fg6FHzo45Oz9/6l28Byqqdz38HYmTnN88et+iNZvNA8ZcJT4FByMKAuT/sr4GL7xmVV1EKbKsh9NJHarxl1wKIvtSKGRXNJCJ/I6cy4T5mlhljo3cvoqIwTo5uygoICIVGRoI9Kg6WGWOh9yuLKpnvZO++8Q4kzZ85QwoJ3330XS5S6snJi84JCquHWFVtLu/ch44Q1r5ERLChuJ9N3/P5Pufkt5apkyk+ZR1hqiIWZMmXzDv045unNUHoUn/v2325+eGVxl0uothvnPdWidRGlvTBsysQZAIEoJXAqALUwQo8PYDc2Uc46OjkQaRMsUvioOBKwIFhBPXpEogccRikwjlO2fz8aiFBtv9tnWCwuzAgv69mzp6WGWOjjlFlCE1uLE0NTFiM2b9787LPPnjx5Eo7+6aeffvjhh2JDvBAagx5XaReP2ni0kdPFZh3iMtiNw2qLnhZFtON3376s2tDlpJwy7SJBJ62G07cpiwVN+kOydSQJYyCmLBXBUxY1eMqihg9TRjqaYIi2kwH2sqjhacpmvP4flkDJnaKYAksGF5pDMAFLHnfG2webMmXnFBWjWx1796ebX4C6FRTFFKhbLxtWiQum7jf+iu76orj60KSXKXvo45MyjdquvWOWXAVRoSgWH3iqfcrGty0PNbpTFFNgyeBC2ymz5HFnIKYs/MC03FO9beVL6qoopkDd6k4XL6P7SBFv5wZlyhYcPjX/w0bqE9KUePD9E7UHv6dVJMgIimIKKAPyI4H8lBkV4hCT1RK9a5naIih7FVAvc6copsCSwYXpJv8lF3XvNrB81KI1FQuehYMMn7t04to3YO/Qq4wyEEUxBXIThH/yhv2oB+m8lgVSyKke0HbKLh5883XT5vcadfs9Oz5BHiS6lA1BAucQnIuooGRqeBlmUF0VxRSoW92ZJl6GTkQFUUyB2OABjY2NoowCsc0bStqVimLxQXx3SFqCpyw6ZEE4LEIQTgiZyJ7xMM1Xdm4ewhx6FKf6yY3SzvMloc2X5TojnLhO0rLG+QSUEvB6PNIJqG/fvqJcbFCfPUgtJEe/eL6iQwrPl/hfQbNmzUQqbkir+UqArvN8RQeer+jA8xUdeL6iQ5PnS++b9TGIeLOhYatoPnXnS/ze6qsZu2qyVgzIqsnSfpCUNWAGqGcQv8xCHlgoYf591nKN4sdcWromK2vFV+HZNCZzvgoKCrCMr399RVMWD5rn6+uvv8YyJfzLkQ6/9bCwqY+vp7B+1dETdLVZ/bQfOmi/bMAU1NXXawntdwyhQVI2YFx9A/2AS5sv5NHKwigeq9OzaU/rhX4bEcaz2l1grapIoO664NixY3l5eTInEpaLKgsfOHDcYnEh1Qno9VvGkEiarx+vqBiLDjXLzsnNb1lYcoG04/oRHhEVIs4X+OD7J4gWezhpsgDLfGkPY+pegzQ9iQmL/OkW7EiD2q+3tIen6RjU/Aguqf0KTB68oaNY2wqiIfqZmJlxu972Ml/eKSoNmn85sWnzNfieh8smzkTxOfu/adWuw5WVE5HuO356E6ZSVKpXqwJj0J7Az8qCbMGPlGfutSeG4VO6nJFROM7ZBk3K9F91aataWf23qVotkXdGivtXrf4jygTS83wJWYqETZs2yYFZKomFVCfgwQXiymj8a/HixVi+8847Xbp0+eGHH1599VVtBGGQQRwKXjaskg5DYvcbf9W8oDA7N09aKNvA3zxIqzfNfwZL5Ck4v4QsRKoZSKX5igrsX9EBA6s9+D38a1DNgmkvflS5ZC0ClEuHjkJtCw6fuqp6slp/RIpKjfnCUsYQFfVb9OBznB6RhmZT/NBj3zjtx7t6Qpd8Te+wCdTOBvrPtbRowyhI2q/lpILWq4X4zBf9nMZSSSwU9cbqX8Ypsunk49FMuJvFYqbd9WO0eP31148ePXr69Om77rpr1apVwuoB9FKCqID50qG/38MYhnYw1o7TYv2KWu1aUnnzAo1f26Sn9SUVDMXxZMERipANebCkTXb0Y74SCWO0yWJS5wvxmkilDni+ogPPV3SIdb5OnTpFkplgiOYTjlgbToqPJNExPc2XJRpyp+3Ot+RxoSigwJIhIkWx+KAp81Veu5wOCuDGeU9ZtsIoiimQWy8efDMVBK69Y1avUbfT44ySooACuYl+4oElSK/EAOVbvOQDkaJYfOBpviyPG7oTEyGKKbDkcaEooMCSISJFsfggav9S7+vb0na+aJOXX1GJAgosGSJSFIsPop6viHSZLwvp+JKkn1CJAgpgRE4vv94iimLxQTLny5aigAJLhogUxeIDr/PVsXf/eYd+RKJyyVos6RdP977658uGVSKh0na+vP94ShRQIDdF/N0WURSLD3zwL/U9kyD7l7yL4glt7X70JLZ5gCigQGzwDFEsPohv7ekHMV8NPoFqYzAkNA+DZ1hEk3hu+85Y4sTY7vLedELD+VC+kS+cTbjRz0h7uHlYtGQPY4TDZw+bOnWqiIUM/OEPf6CWGJmJuGjYkSNHevbsGcCPCabiX1pSHZl1lmQPSzyEh8E5Yucd6/ZQpYEFe1jioXlYRLz77ruIqMRKKoM9LPGI7DcdOnSgmB0QppQFe1ji4clpyL2qqqrEesqCPSzx8CpLaSBgAHtY4sEeFl9g3hoatmYC333X/gcG7GHxhT5vlof7U4e7RlktzoSTiTGbwR4WX4R7mPxStrb61YwaZNg1aldN1oAs7M7l4pPcWT1lNmSo2SV/vKO90UWS7KIq/UPelFCNIiF9RSTkt7w3rhigvTpG2PVlltaT/Su+0gpampCJcOpKFoIYP3tYvJHaGhYDpZOxh8UX+rxpvyyUrqb90lf8FHg/vTBEvPCGvian/97XKKV9WY4+3wuLfLsIJbAUdeqfK6cKtSJZ+g8fjZ82onLtfSb6O3KQqFB+8ohNlJO+Z408WjalNvRH/IgZq+KHyNRKZAbRw37++WcsX3755b///e/Lli0rLS0977zz8vLycnJyKAMBPbH8tSogVE8NErQvM5AmD8OKZbLAW1dsBWVa2l04w7+/S/7rv/6rSCkoLi7GMkYP637jr2QNlwz5FyyHz3lCpmOhi4fRG7iMtFhCHurrx1XoH8XEan0DBCaUQeYhmYG60E+pKSHzUBEyojZSGimTalWUTfvEpqaXsKhdInXU9Em16Pk1PTOMamaRIGM4I3sYSl5VPRnLy4ZVYkkoOL/k6rHTLuwzcMTCVZb8oI8eZouffvrpscceE10JHlw8zJbkMe40TlLJpdczo8rIHtYExtvDCNhnaKvnyPFq05LyR2OXDh0V/nGeuDJaD0tvpraH0ft66F1PnfsOxnLWnmOXD6+qXLK2Q68y+tr68LlLW5deeMvi+sH3PIwiQE7zfDDit9uaTGcP0zVARMoaSZkqlJecyTTOiRR0I40EAnM65dGpDTTOcYBubKiV1wfy5KjlDDVXZ74UMLUrSYJKNaB1WWeTGV8Pe+KJJyjhCxYuXEiJoqIiLDG16u9ug0NnD7POfiYwjh5mufQD3nnnHZFqEtasWUOJ06dPL1q0CPvM0m6ceMfv/2Sx/Gbr+xaLSvYwlXH0MImhQ4dSAh522WWXDRs2rE2bNmT/+eef27dvT1ujhfSwSc+/1apdB/mZTSdSBpd36Nr+ZFwl1WD5bXo42cNUJsLD4gRVw+5/y77n9NN04ti6bTJNnLP/G4vFF0byMO2aX7tDob+pUaUaGCG6ogQiIaWsPW/690cslqhI0Z5Ih/WKSHm0e7OmzthEchamg4c1y86Bukzf+ZnsQPOCQqhadm7eQx+fRGA0YfXOqmXr+4yZOvPNr6duPoAwH1eXE9a8VvPyYVnER0b0MErQvtTC+QbtxZ7abbD6LUhkZfXLqtXuyGvLCj1+R36E2/o9fWRAESqFqwGqiuL3hvp+8IN9tVp+3SFo91NzWlptCzWjIXmPjdrVCmKT3i5lg4U2IQ8yk4fhP6xSE1pZtGh0L5yp6mGI+qWHBY2RPCyzGDgPO378uEjp2L59u0gZyMvLo0TKeZjx90ShYbDQaVE6H1ZJVJCGfpBs6HcltkA8dB3S/0CpJbSceqlQbbpdO6tCdcho2LUEjOZNoiAoz866XIle0aome/rfCSr017LquiVKeaTJw5KOo0ePvv766x988MGzzz5LFn2CND/7/PPPN2zYQEYf0aVLF2oi3pB7OtMYLA9LMLZuFc/KJcDJGhsbMdcZCDH+zPQwQuKf5MlMsIcx4gv2MEZ8kXwPy5w9nZk+7ZuHiQAvehw6dEiknIF4WTTjCpHbV4iqI0HkdoWXkdrC4/CDCd88bMbr/2G5P6Sy7SU9pm4+cNmwSnDIjEfv2nbo0qGjxq3649CZj3UbWI5rOkt+Cz1e9FlKES8efHPFgmcnrn2DGho+dyn6UNq9DzYhccOs32JJb3i0JXawqN0VllKg/MtVYckFSJ9TVExvk5Tvswe7XnsDOkCduap6Mn08LPwtkwm45o0fEuRhMTIWD4uRTfYwye43/spiiZbsYRrYw+JH9jAN8LDmBYXglZUTC4rb0dRA/3uNuh3nKaTptIjEoJoFkzfspwzIP/LR1UhULlkrnz5FkVsW11Oa6N3DcEqiL2hk5+YhcdP8Z3LzW2LV8mgrekhP45RNnIlsUmZglGl6kta7h/netCR7mAbWsPiRPUwDe1j8yB6mQXoYnRToRECfp6Gl5UeXOEFcdN1N9OjpFRVjsaxatl5utdC7h9EZedqLH1EpXKzhEvLX9bupHhBXr1i2Lr0QS+oqPcJK34Gh35Wo9O5hvjctyR6mgTUsfmQPYzAcwR7GiCM098JZwBdQjQyGhOZefgVP7GEMCxzdi37pVfn4uhtm/RaJtpf2ymmeD+O1d8ySeSxk92JY4OhedPGMKxe6q1795MZzioqxSpfZtmT3YljAJ0dGHKG515SNb6vv82gyyb3OnDkDkQP0+hkZDZ/VixxLIjs7m5phZCbi614ANRME8AP4iYfP7iUqDZhjEdi9Eo+4uFcwwe6VeLB7MeIIdi9GHKG51x3r9sDDYie7F8MCTwH4mTNnRCqVwe6VeHhyL1wG0ltVUxrsXolHZPeaOnVqMG80RAt2r8QjstOQbwGpLmDsXolHZPfKzs4m90r1b8KzeyUeXmMvQKykLNi9Eg9PTlNcXJzq0gWweyUeKa9J3sHulXiwezHiCHav+EL/+H5GMDc3V4xZAbtXvGF9QXy6sqGhoUWLFmLQBti94g3rbkghDlix0WJxIf3F2eJh7F7xhpj9XTVZNVlZZ3eNwpLS2Hm7zu4DvzI+4iITZ8/Sfg3t3awBM2i5YkDWVyt6ojiWSIs8u0aBchPqR5oS2FqT1bNm176srFFaWk8QqXUY0S7ZsdRq0+pcjhqon1QJVUhN6HmslA80qB7G7hVviNmnXUXuhSXtbNq7tASNvau7C5ZfaS6FPY0l9iuWIS/RbkNqHiByatwY2qS7muaR+la4FxyItlIC9eg1hPSJ7LInqHyAln851QaLVtzoti3fffddeBhBxmFp7l4HDhzYs2cPpVP65KgIm0ZyjsASkT4NPs3dSwXHXgmjJ/fq1q2bSKUFkuVe9NlOYlZt6BN57pSlzF/eE9+5lYkEUnzBzwtZvRIGchTt+7RIk3tpn2XUv/nYoLgOfYFRdyYts/YtSONzsmShDzLCQgnjD8H6VyONb9vqFq2Jhvp+tFX70iztcvElSi2P8bVHw9eNPKClNv3Tk5qRPgRJ3ZaZnRhc9wr/tqhfSKJ7YTfRV4/17yBr3/uk/VRhhFAwUgKbKDPtZsosLMit71pKYIkM2qrJIZBBOA0yhSU0D5OrIfdSjLK2fbVouu5sg/huMpqDh6Wqe5133nkFBQV5eXkY5+bNm7du3Xr69GnYw33C8vuRgHCG48d7rVOfCTS5F/aoL4jlwzhwLIR6+fn5qGf//v3y85/hsOzXaIn6J659w2KMnexeKk3uhamxTBZ464qt45/bYTG6s8GnXwpNmjRJpBTgpPmPf/wDCUuj0XLu23/Tj4Ws+R82Ylm1bD2lLdmipYt74bxG5zI90tqiRzN19fU4xWzB2QrbkCcr6wZtiU0NWnZ9J9XV79Ny6mn1BEf5jUBKj400o16QtoLaGW1fLU5qSONcapw6RQa1S2QB5RlQWpDQjDglGl/jlpuoBmM4mkVlZPe6omLsqEVr5JcjKhY8+9DHJ7tee8Oc/d+0vbSXzKby6NGjOJfFFVOmTLE0GhC6qxf2hO5b5A1btABfi6YRX8vop45Cb+w2CrTJ1SiDjMrV8Dy0SoG5yCwqhEPIOEnzBD1BET2W6Iz62XbyQiwtFuTU3MtwO3UT1WDrW2Bk95Lf7qIje8auL2bv/Qt95+yacXfLbCr9Ui8ndO7cGUt9soII6mQYtOm22Q3KxZojveSJP0n5omJk92oC4+dejz32mEhxaJ8KTDH3UoGGqp/cqLY7Yc1r6iqxx4jbLJa4kt1LZWq7F1j5+DosW7XrsODwKXIv+roMYkQsLf5HvOP3f8ISZzH6cqe/dHEvCrEpfEFsJIJ643RZq0X30hIK9kEZv9OtL8OoJeRS3QTKiN5oTg/Y0aJ+nqW2sKTmKrBaW0d3eqkS/T6cFhqqdTaBcXevLl26jBkzhtILFy6khC9AQxNW78TynKLii667adyqPzbLzsHVxvA5T3S6ehDs9B08Wlq+QEvfqsUFimr0hS7uRSE2hcaaD+EST/ck2hNyZ+urW2S8JaN4EE4j0zrlBYG2CQG4zICE2hwsmnvphJ3a0pxMbw7uhTQuJsLbUutsAuPuXu3bt7/lllvEiq+wNBoQuriXO7VLxTBjnJiwtuLoXoMGDdJr9g3jx4/HcseOHXQf3/K+4IBwysa39c6Gwzr1mcC4uNe2bdvgYXSDyhf07duXeilx3333WRoNCJusXmnJeKnXZzqoal9w8cUXi5Qez2GJhuhDIZIIs9Qv76tple0u7932kh5ylSJ9Il0cDKpZYPlUsYUuN/fZvVTGN/aCh5WVlU2ePBlx9DXXXENGaBuWZH/llVfI6BH6hYwAGqIvdIL0gWrpXvSxUqQR49OFJGWQ3/NWv10q3QvXB3Av+qA1uZcM/1GWPv5NH8zG1plvfo3VcLJ7qYx7aL9161Z6c1N5eTlWBw4ciOV5551H9tLSUj1XU2Bp1FZR6Gu35G0yAzymsOQCSlv40McnLRYilaXv37iT3Utl3N0rfrA0GhCye6lMB/eiO6sqZeREn/EGwz/UHe1jIB4Z0b0g5IB6y8qguAFmoZ7d8W+O2r0r/XEGi72pDO+VG+lP4y5Mbfca8/RmnM7kZ+FvfnglXK19z773v9WAMAubiNff+wh17PxOF/cdP/2eHZ/Qap8xUynhI6NyL7pNb9xBNXYVrWoPPhj5a+vo3qZ+v4oepxalNPeqrYN7yZuf8g/PsNTrTy2jFPzA1JZoMdyZtKdStYTIoDLkSdQE6if3wqrTrdfUdq8Zu77AcvrOz/rfObtVuw6Iu+nGPXUDbgdPwtaalw+TBasyDXqJpaJlRPcydr+2a7X76diRoLZT9X1PCW2rSRg0X2nQHAX/RCn90R3pXtKr6E9AYFYFsmt//EECW61taXkM9xJGsuibpCW0SfQHPaEmpHthlbpHGVSmnnsVFBRQwtJotFTvR/jIiO4VC5twt126XVKYqurVv39/S6MBYVzdK+WYku515syZ2bNnWxoNCAPqXjjHGWn6C7cNlTx+MdDu9csvv4iUgaNHj7722muUtjQaELq4F2KUiqxxOFtp8ZAOGGlnG49OyFibEiLcoRAHS4pv9DhduAgseg1avE/nQdpkPHmh2bW0Hj/JFhGxUUGjXfHItdYnPY92Foa36Q5netI6SprcK7n4+9//vmjRolOnTu3evbtHjx7Tp09/9dVXaRWbkBb5fEVeXp5IxR3iZ4nYc/qPYLUnumBEqK67BT2KE3IvfTfrO57chTxD/8GjXAVra7VHbrCKalEPatN+k4hN+s8SyY566uvHyU10QUAFjXZRlZZHW9V7Jdwr1LpmlI16Z4Dc64svvnjvvfe+/vpruFRZWVlpaSkcC2lsgmjBwyib7zhy5IhIxRfWqc8EBsi9Eo/JkydjqR+UCYB16jOBmeteUESRSoiAIR7NTNDwM1G9gERJV6aD3YsRR7B7MeIIdi9GHMHuxYgj2L0YcUTyZxl7OkNA94ozCsl3r2+T8U5K7GyRSiCSMtLkgt0rcWD3ajrEzdrocejQIZFyhmjDFY2NjSK3B8C9RCoSRO2u8Ni0l5HaQjSTgvDHvTAFlgdU/KVoxhXwGEup2On8mI0J8WhapWgmBZEI95q15xiWd67fKy2FJRfUHvz+nKJipPuOny7tThTNuMJ2H6OVhz4+eW77zkijoXmHfiT7hX0GNsvOwWq7y3tj1el1nk1zLxrX8LlLLxtWeff2I0iMW/XHoTMfkz8uh33IjEexnL33L1hFZ5C+omJs9xt/NWf/N9feMYuySYpmUhCJcC/6UavFjWjHj176vGp0omjGFU7uRT+FpYawSvYuZUNymufT6i2L623fBwbG4l7wFdiB9j37UqLXqNspA9Ide/fHkvqGzujbBeCIlE1SNJOC4JOjG2M/ObZoXRR7x0QzKQjf3Et9G5HvFM24AnvRUip2Or9WyYR4NK1SNJOCYPVyI4f2MSJe7mX7Ot0mUzTjCi/72OndTMTbVr5ksfjoXtE2rVI0k4Lwzb0QudPbjjAd9Eoj+RYky4/us3PzEJGMfHQ1vdVI2hFoy680WCiacQX2MWqjOuUbl5Cm1hFWI4SX+xg9xBIXa8hwZeVEpFFcvqJCdti7e/netErRTArCZ/WSbzvCVSFdMNJS/d09LOrhHv6TfHl9JymacYVap6TsjxOpdbVFSpM9FvWKsWmVopkUBMdebuTYK0awe7mR3StGsHu5kd0rRvjpXgjkEcYiPO9dNWnUojWwXDasEst5h34suag7YttpL3706/rd8gVudHe7S9kQ23hWpWjGFXIfUxA9dfMBNIoEWrl48M3o2I3znurYuz91CUR0iCVap17R5zwsjNa9fGxapWgmBeGze2FJF4ZyddaeYxSxYq4vH151/b2PDJ/zBFaJ9AeQZtk50mJL0Ywr5D4mr5XXYiD2MbZ2vfYGMuKqjew3zX8GS+oVWSyM1r18bFqlaCYFwSdHwQv7DLxu2nyLMTEnR9umVYpmUhDsXm7k2CtG+ONejY3ah4PjB9GMK4rblorcvkLU7oo4NS0hmklBpHDXGcEHuxcjjmD3YjAYqQqhX7j4u2PdHlwqBYToDLpEfWMwGAxbhPQLqmG55eLCniPH03Wz05cI+oyZmpvf0mL0TnSG9YvBYLijKfpVtWz9VdWTkchpng/WHvy+TdfLsLrg8Kn732oY+JsHRy99nv4GB4HDsu/46WPrtiHhnaxfDAYjIpoYf926Yiu0qVl2zoTVO6FfvfQfikK8YBwwZe7VY6eRft25fi8sTr+FdiHrF4PBiIiQfk3Z+Lb6I87kEp0J1693330Xavjdd9+JdQaDkdloYvwVb6rxV4cOHSBb4aiurqYMDAYjMxFc/TrnnHOEULniyiuvbNGihVhhKMjA9wYzMg0pEH8dOXJEHJEG+vbVXtCWqA80piS+1SFWGIw0RQroF6MJYP1iZAJYv9ITrF+MTADrV3qC9YuRCWD9Sk+wfjEyAUK/AOhF7PjP//xPkYoZoluMJoH1i5EJCOlX7MjOzs7KyqqqqhLrjOSB9YuRCfBNv/QHGwRYwpIO1i9GJsAf/RK6pYAlLLlg/WJkAnzQr+rqaiFaCgYNGiQ2M5IB1i9GJsCf+OsPf/iD0C0dLF5JB+sXIxPg2/2v7777jsUrOGD9YmQCfNMvQk5OjkgxkgrWL0YmwGf9QvwlUoykgvWLkQlg/UpPZIh+NTY2isedGWkEsXc9gPUrPZEh+qX7235mOrGhYSskrEWLFmIfu4L1Kz3B+sVMUZJ+0f6NqGKsX+mJTNavXTXeRO2rGbvO7lMtdgWXZ9Us1xK7RtXsMmW28KsVPbXEVzO+MtfpO1cMsB9dTZbeATcutx2CU4Xu/OqrSMPcNcoyvR6p6hfBRcXQdT/B+hUQsH7V0Cb9KFLTWQNmUDbSL3UTFTQybBywYuOArFGUEw1lZfWESOkJDShCUqUf/yFpUORgIxlFgawsVGiojFY55TTVeXYjlnal9Dr1Tsr6YQRgMVap5uW6We+2oLQsX6GLjl5DqCGqUOm2yI+OSS0OTZpeiTpFat8oj9iqT69elQbkpK0RGa5fBFsVQ9t+Ah0VKUaisGHDBpFSwPpFx+GKXVaRIjGihGWTUVA7tuURK/WFVnGcA1IIADrIRZhmOtSFfokKdX0h0aE8UjLUOvXNSjeMUppF76TWn5rl6CqwS9FN0i+9yCiRX6diWY7ZwIrosA4kqELZGd0satD7FVJwbdKECIamSO2bltCobV2xgiyhUXinLmE2fPfdVRZpQ9t+Aj0VKUZSkcn6xUxX6irG+pUBYP1iJpFx2i9+6tfChQtFSgHrV0CQYfpVV9+AS5W62n3aJUxW1jjp8Vm1dbWUZ9+4fdrlTB1tzaqopfz1FdrW2qx+WFJ6X21Ww1ksspCf0uaaRVtYGmW1nOY8Wyrqt8Ci9ES1UJr6oG9tqEU/0UNt2VCr1w+7qVGqSi9iKq73fItWUK3Q3AHqZ0N9P30sWga9lFqnNmpLPSil5bfrG00pimDgelo0p29VKzE1ETs5/soUZKJ+7RtHxycdM0QcSxb9ComCsGjZSL8qREEtj6mUqeaQfomGwvMYNYd6olqUdgWFLoiaqYemCh26DWo9b6gli+izXlbtQKgbBkm/FH3U9ctcD6mebd+EHumtKJXreUyVmJqInaxfSUBx21JMC8M7GhsbxdxFAjJbXDzTWKErb4aQ9SsyJk2ahOULL7yAZX5+PpYY1F133aVtO3t269ateXl5rXTQJizLy8v1jfZAHsvXSRLMW1dspcS4VX+URpUyQxAY1adbWL8yio76BSt/f0gi/Mv7//Vf/0WJ3bt3Y+n0af5PPvkE6nb8+HGxriO5+jX+uR3X3jGruMslPUbcNnvvXyqXrEW6Q6+yqmXrq5/ciETB+SWFJReodksNCWbi9Utcr4H7xqFC/ULJlCEg1G9RWY3OFLfJwunhao6uFi1GC9V7XpZNkdm0K0of9As7GKdx8Nf1uy12dTVGJle/fMEzzzxzxRVXIJFc/aLWRyxcRYlW7Trcsrj+nKLimW9+3Sw7B/sR9vkfNqp2WTYpbIp+2d17ots36i0tumvTUN9Pz2A6vOlw0gVCPyDDb1EpFsps1GNzZ0rcOVJKaRbXOk23jRpq9TqpZlG/6X6c830lxaINUB2+bE7LozYX3rHwO1k2eVT9UjrpXkrtQ6i3W6h4RPqjX5b0ZcMqcQBQevA9D+OoQHrUojXyTH5V9eTs3Lyc5vndb/wVWSISnTl69Kh+DzqF8be//a2srEydMWZENkW/jGNJPx62kE5l6TeGSEogTBA4SuO40g8h/Zihw6kBNi1zSL/0AxIKpdejHWMVSlxmqUf/c9uW8KZ1KhajLVmP2opRj35r3O6WOTWKpd6oMBrHv6ELxkB0anOiDt9owpgl2Zxdx/S0ex6TflFP9MFGKKX0QRuO1rF945QMbkzE9eNDH5+UaegaJRYcPiXTXhiVEwcKf/3rXwsKCjZu3CjWkx1/pRybpF84kjVIR7cllAJ59KPOuqkppIPTYsxQCj2NN930izwgOEhR/QoHxmI5RJkubJp+MTOBfP8+CSD9wlU2iItrxKe4ju5SNgTGG2b9tnXphbP3/mXIjEcv7DMQlosH39z20l5ITN6wH5sKSy6gspT//rcapmx6BwkQiWkvfnROUTHdiOw16vY2XS+bsOY1Wta8fJiyTd18AJtKLup+47ynyBJwxkW/Ahsr+dAxuoKzGK2kB9yaTLoOTTrTQb82bdo0ceJEy9P/X3/9dbdu3Y4dOybWgwTSr4LidiMfXT1i4aqb5j1NY8Q19dy3/wYNatWuA1YhOtVPboRsIX3riq10r7C0e5+hMx+j/FdUjEWR0Uufp1Uo3eXDq5C4/t5HsKRWaJnTPB/VIgHSHXokul57A1kCzibpl3I/yPT8pHGHSJcJ081s45AAKSfZRX5xR1m/xWOuUKMhOpRZ2HWjubiW2bCESBZhV/VLSat1uoxOp65fLrf89VXSL7V7FfpWymNuLnSDTxpN+qX2ObFMB/2qrq7GUj6QFXyQfDA9Mlb9Uu8fK4eiPAiNm9mho4K2ynv8yh1loWJqhTqtN6FpSU1YbkiTCmj56bA3brFTKWqa6gn/EwHV6TI6nUK/9LLibjrlV8dF+qV2jx58JTt1Uqtcr5Z6KIyKfoX3M8FMYf06ffp0YWHh4cOH9+7dO2zYsG3btsFID46uXbtWz5JklJaWbt26NTc397vvvhMmHTjGZu05xvTIKRvfjl6/YqJx9EZNOp4DyyaPK7BMPf16/PHHBw8eTJ0MIL755psWLVpAW8W6grq6ussvvxwJjr+iYpPiL2ZGMJX0a8eOHTk5Of/3//5fepYqgLj55ptnz55NE+iEoUOHRqVfY+u23bpiK3jn+r0Wu7oakbUHv19w+JTFKDln/zeUsPxyKLwIdcaSTRaPB1m/mE5M1evHzz77DFqGJdLHjh1r06bN/v0Yj/ZbxR49eqxcufKdd97BKi4tsWnZsmVIV1dXV1RUWPL36tWrpqYGCX+B+KuoqGifdtNBRGT080kC6RcEpdvAciyRzi9sTU/8YrW8dvn453bUvHy4eUHhQx+fzGmeX7VsPThj1xfYelX1ZGy9a9sh2O/b/eWE1Tuha1M2vVNwfsm8Qz+2aF2k1lByUfcHDhy/euw0NIEiWA6YMhdL4h2//1N4Gn1Anbhqu3x4FSq8beVLqOH8ThdXPr6OMqAG6g/S2bl5yNksO4eK5+a3xChgfPD9E8PnLh299HkkCorbUceQAUNAPyeseY2q8kjWL6YT0+H+/YgRI7D86aefsNTdV7sLRvrVsWPHX375BWolX6mMKEnmxyYkEn/jn/QLlD+fzmtZgCXs03d+NnnDftIg6BeM0CmIApHEDkT4Azv9nXHi2jdolTKrNbTv2RdGKAjCKNiRHjLjUSyJkD+Z/nX9btQPuUQfbpr/DPKTQkEHZR76QyfiPuoM0jSQrtfeQPrVue9gMkKnpr34Eeq/99U/Q85ghJJSB5pA1i+mE9NBv1IOdNirhOIg3pm99y8Wu4+EfKg/hEghsn4xncj6lQSE6xfThaxfTCeyfiUBUr9+s/V9OcDbVr4k007sf+dsdbXtJT3UVfD8ThdTwuWH8biso+tQy/tCAsuY9Us8/SRXlYeVtiC/fHJKSxtPRQFI6P9nyYensFU+4QVoT06FPZSgbdArAWuz+ukZ6aEKU1uaXU8jzz696r1nn6WOyU2WImB9hfaDTWRTOlBXr5fXnwvbUl8/Tm/dflx6DdqKWlBvVM9fW6dvFOPVKeZKHa+eRdRGVErp9TzwCHVDPkqmZ9AmQcyV8QQZ4NJVL2T9SgKwi2hQ8v4XyQ39SfGacXfTD4b63T4DS7p/BA6qWYCluqm8drmsIad5/mXDKpGYuvnArSu2Vj+5EfJ0TlExCFFrXXohNt2z4xMs5fP6w+cupUTA2QT9oh9m04OdLvqlSoOwGMczvUqBasOxhwrp6NUe2TdezoMjEEtxTNpUommTbtFqU9uStYGUhx5/RSl1k1GEOqNZqEU1jyoxyEkjdRqXpaDIbCiyOl6ZR6vcPF49gxgg5VFLqd0w9Cs0Cap+maclNEZz5RHI+hVfPPbYY+G/YcIesoyOKG/PW/jg+ycsFpWWRxzUzOomWTnpV1HHrrQafDZBvwLCcGmLAy3qnFlk/UoQ1q1bd+GFF/7zn/9E2km/mLZMXf1ixpuppF/3338/vDM9YBkd04WsX0wncvyVCPzwww/FxcW/+93vaJX1Kyo2Sb/ofgr9oDr8Ro/pFhLZ1a30C2ejuOmn0Upmce9GLYILxn1ntdtM+v0d7eaRqUK67yPu/oRXqPZTVE5XoCgui+gWMbrwcVEHwksZW/uZW7SMV82plaW0OldkN/KrPx1XJzz8J+XxoqN+NTZqj4MHCt4/ouUjXn/9dZEKw549e0QqSpzP30+LElF/P83QCP1wMh3ntAwnHavmN+qYCip2ISKUVouQcMji0C+7V/SE7lWbKjR93tF8J16RvFBnTPkNu54zvJSqX6EWreNV6qd6ZFsGxQCpZrsX22tFbF7pEy866leGQ/6oCPo1Z84c+jza5MmT/+3f/i0vL++DDz7AJugXjhb55aHt27fLUqNHj6ZEwLF06dI33nhDP+bTBEK/DIYfgbFRlSEbRn/ERqgwDkx8i3Ek65cj6NdFBKR//vlnStMPlYAzZ85QQgVyqgWDDCmyR44cSRsJs+gXM73J+pWh6NSpk0jpSBsJwyh0n2ZmBN99dxXrV8YBB7ktWrRoIXIwGKkJ1q/MAmTr22+/FSsMRoqD9SuzwPrFSCewfmUWWL8Y6QTWr8wC6xcjncD6lVlg/WKkE1i/MgusX4x0AuuX9o78zDmkoV8ildbIqH2ayWD9Yv1KQ2TUPs1ksH6xfqUhMmqfZjKC5c0NDQ13rNsz4/X/SEX6KA2oylJ5MImdZfk9RyxIlVHbMkNODEFD4PQLrmB5IZR3dikbAjcCkKZlOK+oGGv74man/N6JGsQwYob3zmAsFw++2WIkulRCX3uUbPLYsbP81S9L/SrPKSq2WLwQdRKw3y2bwPkfNtJnBGInmhDDYCQQ6aNfOCbp09NE+JNc0hFO6baX9sIxf/f2Iw8cOA5L9ZMb6UsZtDUWogYxjJjhvTOkXzgO6UsflhFhKx23SFc+vq7bwHIMHKv0+VtsbdP1Mtq64PCp+99qGPibB+X3PrwwKfqlDkou2/fsq+5WOTSQBitzqs5A+qXOjFqnuuw7fjp9b8WJyCaGwUgg0ke/wPLa5XAjeUxiOXzuUiTIZXFgI33p0FFw7uIul8CtKU/zgsKSi7pTOhaiBjGMmOG9MxgL6RfFEeEjapad0+nqQUjPO/Qj0pToOXI8Eijba9TtVAriheWAKXPVc0BEJlK/sJWAtBwU0hPXvoFV7FaMS+5WOTRQ6pfqDFSW5k2dGbKryzvX70WCTg8uRB4xDEYCETj9mrLx7Vl7jqUiffRgVGWpPJjEzvJXvyz1pxBZv5KCwOlXLPFXcumvflkqDyYTGX8FnKxfSUHq6ZflA4jE8c/tsFhuXbGVaLG7k67CKh9f99DHJ1W7FwZBv3AZqK6OrdtGk4CLINXuTpo0L5MQEP1K8KhtyfqVFARXv2oPfl9euxzCVPPy4QmrdyJEv3x41bxDP9628qX7dn8JC7xzyqZ38gtb022L2Xv/ctP8Z7AVRhQfMGVu1bL19Ie2kou6P3Dg+NVjpyEbvLN5QSGMBcXtULBF66IH3z8xfO7S0UufR6JyyVq0O+bpzVhqec4voTzg/A8b81oWwOhEHz1YPZJlP5GWA8EQMJDc/JboVXZuHsaO/g++5+Fxq/6odjWneT5NwoxdX8g5pHtDmL27th1SJ1kOFq3bToJlhsH46VeQR21LH/c+wzuCq1/Td342ecN+cjU4EMIuEiO43fX3PoLExLVv4JxJd2fhPfDFaS9+BG+DBsGCkzAcGkS6fc++WOKQoCOkVbsOWNKX+nFswMtREJp476t/prI4HsiJqXIsKbP7V6x99GDqJ1H2E0s5EJLgzn0HY4nMd28/guHj4ETP1a6i5zQJoJxDDO2WxfWYKEygOslysNR6+CRYZhiMn34FedS2RHExDEYCEVz9igevqp5ssfhIHz1YPZJ9J8IKi6XJjJ9++U4fR21L1q+kIHD6BT9IXYhhxAxRXSrAX/1KaYhhMBKIwOlXXOOvuNJHD0ZVlsqDyRSKv+JN1q+kIAX0q7R7H4slnJZ7Ez1G3GZ5DrPPmKndb/xVx97973T9m9S4VX/E8o7f/0k1emRc9St8ROGkJzNVWqZuweFTeS0Leo26vaC4nWq3kBpCi6rRlvHWr2CO2pasX0lBEPVrwuqdzQsKc/Nbntu+MzwDmkI3UwtLLqg9+P0DB44jfeuKrdVPbiTXmbP/G+iXuol+a0I3etVfflw2rPKSIf+CBN0SvrJyYsWCZ2kT0vL4ieo3NJK+6xcmITs3j25aY0RSVTEhlIEO1HaX98ZyzNOb1SfLaRNyqgOkabxx3lOYhymb3ql8fB1tKps4U87V7L1/wQFP9nBpsDAe+hX8UdsSHRDDYCQQQdQvi2fAHQdMmQst63rtDfS3IZCe1oF/05/YSb/kJtKvWxbXdykbMvieh5H+df3uZtk54OQN+7FatWw9fLd31SSkUQMdLdJxuw0sp0RU9NGD6WhUSSPCoYi+ySMZE4IlxoLEqEVr1COZNiEnlnKAIIQblWBaaLXg/JLwuZLBbEQdj3f8FcxR2xIdEMNgJBApoF+pQh89OPxIDibjrV8pRNavpID1yzeyfsUI1i9GtOBJZzAYqQrWLwaDkapg/WIwGKkK1i8Gg5GqEPrV2NjYECSgP9QxBoPBcILQr6yAffqF/5rDYDAiIqRflr8HJ5esXwwGIyKaol/zP2xEfoCefbcltvYdP91i9E4Up44xGAyGE5qiX82yc+gdu8PnPFF78PvLhlV2vfaGuW//bdyqP55TVDx05mO9qyZl5+ZN3XygbOLM4i6XYJNa3AtZvxgMRkQ0Rb8oc/cbf5XTPH9s3TZZVn59D+nmBYW3rXyp3+0zZP6oiCLUMQaDwXBCU/Sr4PySmpcPI3Fl5cRbV2yVZZFAXEar0K/RS59HgEZ2yuCdKEIdYzAYDCc0Rb/AEv3zqPSDflnW8lFYmW3aix9RBu9EKeoYg8FgOKGJ+hVvsn4xGIyICOkXfUY4ILTVrw4dOlRXV4sVBoOR8UgN/Zo6dSoshOzs7D/84Q9iA4PByGCE9MtyBZdcoj/UsXfffVdXLRt89913lIfBYGQmgqtfZ86cQailK5UjiouLqf8MBiMDEVz9atasma5REZCTkyNSDAVDhw6lPctgpDECff1YVVXVpk0b/Xi0waBBg5CB+s+wAPMjUgxG+iLQ+kUIVzFWrojALIkUg5G+SAH9IpCKsXJ5BOsXIxOQMvrFiAo8gYxMAOtXeoInkJEJYP1KT/AEMjIBrF/pCZ5ARiaA9Ss9wRPIyASwfqUneAIZmQDWr/QETyAjExDSL8sXzJJLPvxiBE8gIxMgvJy/X5tmYP1iZAL89PKWLVvyw/EBAesXIxPgm5cfP659eahNmzZinZFUsH4xMgG+eTkOGAKHYEEAdoRIMRjpC3+8/He/+x2JF8AhWBCAHSFSDEb6wh8vJ+WS4BAs6cBeECkGI33hg5f379+fZEuCQ7CkA3tBpBiM9IUPXk6aZQGHYMkFdoFIMRjpCx+83PZF9axfyQV2gUgxGOkLH7x84cKFpFkSgwYNEtsYSQL2gkgxGOkLf7zc8qEzDr6SDuwFkWIw0hf+ePlHH31EygVw8BUEYEeIFIORvvDNy/Py8ki/OPgKAli/GJkA37z89OnTOGY4+AoIWL8YmQA/vbxHjx4cfAUErF+MTICfXv6tDrHCSCpYvxiZANav9ATrFyMTwPqVnmD9YmQCWL/SExmiX+J1vYw0wokTJ8Te9QDWr/REJugXfP3dd1c1NGxlphPhui+99JLYx5HA+pWeyBD9grufPbufmU4k/fIoYaxf6QnWL2aKklzXo4SxfqUnWL+YKUrpul4kjPUrPcH6la786quNFkuMbFqFuoNZjb5Qdd2IEsb6lZ7IZP3KqllusdhyQNYoiyW8YI1xlEY8XKnsgAEzVGMcuHHAClu5Wb7iq31hRhPlWMx0qtCdkYtkhU2vR1pc113C/PRy1q/gIOP1a3nNLu141o+i5XQsZWniotlXDNCOZF2/1E1UcCMpEWW2iAIV/GpFz6/Oikp21WQhDYvIs2sUVimNDHpaCARVKJrTlhupUbVOdatNKS1NdnV01Detq6RQ6NIuow+qBWks0RCWYQ2Jzljyq81RP2uyMFLTFCl9o56IIkrl6tbIDHddFwmzZo0FrF/BAeuXql8yTTJB2Ui/VCHQChoCpB2uX80gIRiA2czKgkDo/2vAYWkck9ohSoc9rVKFoBQmUUbLIwRR3yRyim16nbAD4aWUTgpFgFHfqHWbVqlm9ASgbhOlRZceWLQaZENGhaFuy/xSdNRJ0ypRp8g8gaDMjOk1j0Lb6oV6ZiucJMwma5PB+hUc2DpBmqEJ+oVjTx7b9vplaBZJEgUaGr+aoeuX1AsqjoRWg4t+qS3K5vT8Ur9CdRK1gnal9Jy63BgKopTV9EsojlJWtRidFLWBeg9N+qXmD1WuVKjpl2mKTBOo0cisWZSC3gnX1fesFU8//XS4hKEHvoH1KzjIeP3Sjq6srJ7hIqVHHpSwbqKCFJvIiENbycoyjvmN+poIZLSkfsAj0KDMOGJlQaFfRoV6fLS8pmYU0noeqXShOnHhBpDdVErtpC5D2rasUYYkgZp+UfFdRn5QtUB6tCr1DqsNISE7Y6rhqxl6WrPLSaMgTpkiU9+I+lZEXppFGYXYGpGNja9ht9oSVYl9b8C6HgtYvxKPah1iRUH4nk4/OOlXUkjaF+n+fUhZmE0g61e64b333jtw4IBYUcD6xUw/sn5lCli/mOlH1q9MAesXM2ncN66ifovV6Ad906+jR49++umnYsUA61dwkFH6VZvVT/VyyX21mASrMUaGt5WVNc5iEdw3bp9xL9/REldG01xWbZ3F0mQ2NMRrjL7p1+jRo2+55RaxYoD1KzjIQP2q1YasaZY8aHX9qqvdp62SyiAPtsLecBYLbN2iRwp19doht4WO4ayKWlgov5421Wy0haUoK2uWeeortDS1hQSoWijdUN8PfaCtFXpZfZchLfTR3Ki2xH8oYi6u9ZwstJXKmjtA/RRj0amVUuvUttbWmevZQvnt+qZOqZY2mtO2qpVYmoidvumXLVi/goMM1C89oUE/aLVVHDnmg02IAgUmluMZRjrM9CPQVAqUNUv9kgJUEZZH1NxQK3uiWvRcGuRFFumCUbPeQ51Ko0q3DUjlNQYidApUm0M/RYFQzUK/tLQRo0G/zPVsoRlw6BtUGxinqjDlUSuxNBE79SGYYF2PBaxfwUH4nk4/WPRLHDnK0RJBvwzdoeNZyo2ex1RKrdk4kvuFjvywPKJmpSeqRWlX0FYjzI3adhvUem4IqOgzaOqA0g2D9vplrsdZvwyh11pRKqc8aiWWJmIn61fUOHPmjEilFDJQv7TDRYtWQocxLPpWoB8dV6YjqkHboh9aun7pkRegH5wm/VJrNo5kbannR3RjzYODH+n6evW4VS1aGgWNTfb6ZW5U6bapOPVct4jAh2jqAI2LxqjTXr/M9bjFX1q2rHG0qtdNc0tdClViaSJ2omKx7w1Y12NBWupXjGhsbNR2J8Mz2rYrFXMXCVK/MpcNtYoqpT/hHmLfG2D9MuHvf//7qlWrXn311Q8//PCHH36YOHHi119/Dfu55577888/Y/pOnTr17LPP7t69++jRo0jfddddSIf/KVYCR9iM1//jX4/8xPTIcB91AutXppH1KwJqamooMXr0aOgXEhApLCdPnoxldXX1nDlzWumAhTYB27dvp0Q4kq5f9+z4ZOabXyNx28qXVLvkvEM/Ttn0jsWYRLJ+MZ3oqF/FbUuxLTgo8XwR4S8QVX3++eeIwjZs2KDqV0FBAZboGMKxDz74gKKwlNCvkou6Z+fmIYHOq3bJ6+99ZGzdNosxiUQ/xdxFAutXpjHcN8S6k3Mni96d2Hf8okOsGKDfGHbs2BFLbMW1pG62YsSIETNmzBArOpKuX5jJ3PyWlKDl8DlPqOmc5vkWe3KJPoi5iwRf9Guf8owrmu6S1VuuBo10Q90j6TksG3q4m27ciXcj1e8lpw2bekc/3DfEunfHvXXFVqJqXHD41OQN+1VLjPTuxIkBYq4xY8YgLhPrrrjiiiueeeYZSgdBv6ZuPnDZsMrLh1fdvf1I9xt/RUZcV/YcOZ7Sqp1KJZHed72iX9rjSKa/7hl/jFP+pKj9OUz+ubC+Qnsq6t/f0W1ai+LvfePogNT/NGk83qVB1Q6qx+YPmg5/ByQLPYdlut2utKLmrNA6iSb1Z6zEY/Gmv4dCNfReKdqhVwUYFr02/ZFUwGjCfpbCOxb+l8SwPKJ+ymn0R+ube83mPpj2jhcis9j3BsQ6NljcyIntLu89btUfQdU4/8NGHCGqJUaGdzS18I9//KO4uBjXlcnVrzn7v5HChF2G00xey4LKJWtbtC6qPfh9QXG7igXPNsvOUe1q8aTQ+66X+iWPFhwV8ijSDnj1kS71qSVLeKI8Q0AHpFFJiCGLzKxbVP0yNW0qpVnc6tQ0i9KaTuGgRppqFvVb9SvUqL7VoGLRBmh6os1oTs+jNhfeMZoE9zw0gYZ+hTrpXkrtg+ytaV+40gf9gtNfUTEWhGZl5+ZdN20+LKRf03d+1vbSXu179p2w5rXzO118VfVkqvacouKhMx+j6xSPREH6a0BK49NPP83NzR3z9GbL6JLLB98/QQnsNWkEpT25bIp+UZCiHw+kZYLKI/VQNzLSIWQcfvpT7MaBFNKvUCVavKBZjEMR9VCd4fGXqWmdFose4olugOpWI609tm73yFUE/bIMBNQGaPpFgdEE/QZAaQ4JS8fMk2Cfx5jAUFcpp3sptQ9yJr1T3xcmiHVssLiRE7teewMlZMyFsjJd1LFrq3YdRi99Xq0QaYiX9yZAZBYakMpYv3499Ou2uhcto2O6ELuefDIipH5JMcJRgbR2VOwbp1+2qD9ppCMKehTSL0oj3qFrHOWCSN+KsqQI2tWZPAipTlM9WIY1rWVWLUZboYM51IpRD4525LfTL2oUl2b2+mUZCKhXqA5fNIGy1FWkqTm7jmlp9zxGbaKTqJNyeiul5de6p3dMFTh3hvuGWPcuLpAnBFZguH4NmfHooJoFXcqGVD6+rnlBoVQxLBGR4TpFVhKR4R1NLaxcubJNmzY//vgjjjCMhREVxCRGgtQvQSPccKcRIMRKOjiZoCGycWe4b0StX+5Ur0FqD35vm/ZC704cNNx///29evWSvzrCEZbc+/cpxyboF90npgsWFyKPXrnV3jSyfkmmj375xfCOpgQqKytFygDrV7T0vuulfjEzhG76FTRQx1IdrF/R0vuuZ/3KNIb7Rki/LG6UXKaffvUZMxVLy3NzkvQoVjgtz6ngMryw5IIeI267snKiak8nsn4xncj6lWiQfvUadXt2bt5lwyrBe1/98zlFxRPXvoFhtr2kB+katk56/q1f1+/Gphtm/RaWLmVDrps2H/o17cWPYMQmGOXfQCas3oklakM2JOYd+nHUojXtLu+NZWn3PrDQY1+9qybRppKLumM1JRgP/QrsvarYO2Y8u+BO8YKgplI8DJF0sn4lGqRfGNG1d8yqWPAsEu179sUSAdRtK18aW7ftoY9PYrV5QSGWd/z+T1ie277zyEdXIwFCvzr3HYxE3/HTsaRsRKoNRFWIyx44cPz+txrmf9g4Z/83MNLTdgjWaBPSTqFf0NgE/cIxrD/ITUdy6PlvfZNmJ5mot3/au65+n5aLnkVQ84hn9P8/U4VUBAaU0ouYnswKb0IzUFnzI/Jqx/RC6iP+lqe9HEdHW7GssHtkXxlX2AvOGmrr68chfXafvhS1qZWL4ihIpWAM62eiqXfDBLGODRY3Si7DOypRWlrapUsXsWLA9nsiQQDpV+WStZCbvJYFEKaLrrsJA3zw/RMLDp9C4qrqyViSMLVq1wFGRFvD5y7FKgj9unx4FRLX3/sIlthE9qvHThs68zFKX1Exlv68qy7pN9v0nD0SYFrrl3Z00fNQ6vPf8gkpTQjMD6MrFGKh2Y38OGLl0lShXoRkhR73l3bNaC6uUXlEy2RRO2ZsUtIW/XIYnZ7Z0C8tD+U0BqiMi/RL7V5Drb6V8piag4qFGU3xl9rnBDPl9evVV1+lxKpVqyhBsP2eSBBA+kU/DqVruqpl6xFS4coOsVJBcTuESDD2HDkeV3nFXS7p2Ls/XRLmF7bGlSD065bF9bAMvudhGEFIWG5+S3oZDuSJhC9cvwZMmYs4ruu1N2Safhnhg3bImZ6VNz+MrjAUm1ieCKecaoVkl/GULgeh4zz8gXLVgk5qNeidNHUs7BF/i6A4jU5PYKuIv2Ra6pccF6VN3RMvPqQ8RnOicmK4foX3M9EM9w2xjg0WN0ounZx47dq1lLjrrrsoEXCQfllGx3Sh064Ph61+kejQ89848PSLKXpW3vQwukLaSnbTE+FUlblCrQhZ0KiuX+qT8eEPlGsqAOHQjVorCJR0yVA6RmGRzSP+VKfL6LTMLvqljIt0SumenX6hcq1a8fuBMP2y6WeimfL6tXfvXkps2rSJEgEH61e0bIJ+NYUN2pGsUxyoUZOOZ4sxQGzquALMFNavxx9/fPDgwUiUlpaee+65ZEQ4Vl5eTunkAnrat2/fm2+++b777hMmHTjCpmx8e9aeY0yPTJB+hcj6lTJMSf36+OOPCwsLT58+LdYDBnSsRYsW33zzjVg/e/byyy+vq0P8r4H1K1omXL+YKcMU0y9IA5Tr8OHD1MkAYvz48QsXLhQrCtDzoqKiHTt24Ajj68eoyPrFdGIq6VdZWdmCBQu+DSr27t2LK1maPSd89913OTk5lmfome5k/WI6MZX0a5QOoRbBw8GDB3HZeOLECZpAWyD+gn5NWP2KZXS2pMfBbrV7PTc9khoVf12/2+mDQ7JyenTWhWPrtlFn7ly/12JXV/0l6xfTiamkX9SxW3VQ2gX5+fkilVi89NJLiMLCv9FdV1fXpk2bxsZGHGHy+tH9M2UT1ryGpW2wRs/le2fNy4exvGfHJ6pR0mlfqw/33/vqn7F0emWul1fpjli4ymLxSNYvphNTT78IqoqNHTt22LBhSJw+fXrdunU9evRAmvRr5MiRvXv3RuLLL7+EfHzwwQdq/mXLlnXq1MnjNziiwqJFi/r27Uvp2bNnX3XVVZb3fyHSqT34/eilz2M5e+9fkLhh1m+rlq0vKG4379CPLVoXYUnh0oApc2EHkc7OzZu151iz7BzSr9z8lvP1d3Y/+P6J4XOXohIkZA0TVu9EZnpYP7+wNZbg1WOnUUI+0A/KfU2PtpZc1P2BA8eRE/qFfiJnx979KTSDTlFnZuz6Apmvqp48/rkdd207BPt9u79Ei4jLIMoF55dQH5CnvHY58pCAXjdtPv3YICqyfjGdmKr6RYCEyce+5syZc+rUqZMnTyK9fft26BcJ0w8//IDVPn36IP3yyy+r+Tt27AhZCf82ml+YPHlyVVWVWDFA+kWDogs3+sEQCF2AGEE1KPAJj79op3S99gbSr5vmP4OcUDH560hQrQFaRnoh46NW7TpQQqXc16Rfg2oWoJLJG/ZTJWgLehQef1FmEKMge6erB5V274NV+l0BWDZxJnWGXo/RbWC5/NmAd9rueluwfmUaw30jlfQLkD8bggypn4+Ffm3bto0CLqxWVFQgsXfvXjX/f//3f3/++ef0DceEQdUvEgUsJ659Y2zdNtIvWOjlEAhbsIQdQRaINO0UqV/0Q24YEQ1Ne/EjRECoStYAdVtw+JQM3LAE5Wt51K/boQZqgiSJfk8O7SP9Isr4i3LKzCDpF/0eEwORcobl9J2foSGKwqZuPkD5o6XTrg8H61emMdw3Uky/gLZt2+LaEAmLfn377be4eBwzZsxTTz21devW8vJyXF1iq8w/YsSIoUOHvv7663qhBEHVLyLUhxIkWFIXIt5NB6EjlIBU0f1+UNYgt1LN97/VIPO4s2lfHrJ9VzhalN1oGlm/mE5MB/1KLYTrF9hr1O0Df/OgxegvKxY8i6s5izElyPrFdCLrV6Jhq19MF7J+MZ3I+pVosH5FS9YvphNZvxINW/2ad+jHyiVrLUYLZ+05ZrFUPr7u/rcaVMvMN78e+ejqiDe5HjhwnP64mRKMUb9qUV6AXj4T+WUv9FIaG9r8Qlt7BxahST/e1t9Xo7/y1EvH4sbQ68NURt8ltR7Tq3jC6TjJ0RDzJva9AbGODRY3Si7DO5qiUPWLXmwPtr2kByVcKB9KkLQ8T3/9vY/ct/tLJC4efLNqt7BN18uwlF9NDz6973on/TKvho5JHEIAvTmrQf9kpH7I6S9Nrq3T32ylQc+s6VR9PemX6a3K6vGpVKJtcnoPNdWsp7WDXNuQNU50LLTJXETjFv0Vz8gW6gBK6bk0aabXW6NCh3FpNWgbTAW1Rim/ebwajbkKlTLXplMpRfUYb9l+Vs9WV1svJ0HMFb1BTMtaW+fcVU9EfrHvDYh1bLC4UXIZ3tEUhdSv2oPfdxtYjuVDH58sLLlg1OJ/h3H6zs8QPRUUt0OIRKJW1LHrnP3fDJ35GO0RuWnM05tR9sZ5T92z4xN6gqzT1YOwlBy1aE3Ny4d7V01CurjLJWjl0qGj7t5+hKIz+dBZ8Ol91zvpl4D+tsKQfhnBFA4hLEkCiGQR1LOJrXra/MrmUPwFo1qJPFzRAee2NP2CyunZtI6FNtm83lpEN0Ye7bXOxlatLdFt53HZFBSZlbjJKA5Sl9TxqrWZqNRjzJ4p/tKbE2mqRMtmHqNj5c7Up90EsY4NFjdKLsM7mqKQ+gXKQKm8dnnbS3shQc/H03Ot14y7W8oNSE/Sy00UjrUuvRBL+mGQLJub3xIJzNg5RcUtWhfJJ2BzmufLFq+oGEuJ4NP7rpf6hSJ6Kc3FleOfVoV+4WyvhDYa9WhJ20pHINa0o1o/MkW0pR9vRuRFx7w4JiVlJcYBrNVmacuoQeQx6ZfcZPN6a3oPvemFscZwQsLhMi5zQb1aRXfU8Rp51FJC45QBinqUUjb6JSdBzlVIv8LGaKk8IpFb7HsDYh0bLG6UXIZ3NEWh6hcpC4Vg9Ihps+wc+jAaZAuxGL0A66b5z8CCq0V1E305jZ4Upa94kGXmm1/ntSxAgirEJqgbKkGRCat3yh8SyQ9/BJ/ed73UL5XiQA2tysPD9HJnOqjotct0OBkWcUWGNKrCUUppHGn6sWfSL7USbKJVvRVTW9QlemG0Rb+UTeGvtxb6hQ5oTeuvdaYuUWcMFXAbl1pQy6zojjpebZPRJXW85gFqNJey0S/TJNC4dIuezTTG8MojkvUrvrj99ttFyoCqXxbKUEtlxIc/5ZOioPyIEVFuksYeI27D8t5X/zzv0I9kCT5j1K/k0RqaxYNChjKVrF9xR//+/dU3GrroVwJIj8jTj4pShaxfLmT9EvveAOuX//jnP//ZqVMn+vVScvUrFZmy+sWMO1m/EoeTJ08WFBRs3bqV9Ssqsn4xnZhK+pU2aN2uo2V0TBdixsgnI4L1y4kNDfKx0rRiuG8EV7+oY6mLDRs2IP567733OP6Kiqxf3kl/wgujePTBOx3qiUTl2YvEkPUrEVi0aFHnzp1/+uknpHGEsX5FxSboF/0Jn54tCH9QQPN7+VAC2Y2t6p/zqTg9N0CZydJQ3w9L8SyCqYjxrIC+1B8+sHk+QJUGtULqJ/5TKjc9MKVTs8jRyfzGuKgD4aXEVvm8BbVo6Z6aUy8bNlemhyFMz1WoE67akYgrWb/csHv3bpGyQ/hL7sMxadKkwYMH/+///q9YZ/2Knk3QL3HI6Y+b0nFOCoXjFrUR6ADQjuGsLPGHQvPjlGpBPSdJklYEBzblMRdRn9XUM5srxFJp11qhvqpBSoBOSAYglMjybKrML+3yWXl9i61+KS2GPT6q1mM3VyZlNHRNq0qdcNWuJ+JIvW8miPXz25ZS1wOCNu0ifJosHmjfvr1IhaFVq1YiFSUaGxvFkBje0Nbzrg/pFx26uvSYZEgRIzP1g838cxY7/dItShBkLiIOb6N4P0uFREWbTBWKw15vTuQx9CWkREpn1PzSruUML2XSr1CLNt0z10NphSb9svldkV7E/PsqWTYuhHuIfW/Aup6ZOPfcc0+fPk2zU1paivR555335ptvfvvtt2PGjIER+gUlQiIvLw/GnJwcpJHn559/LigoQDolsGnTpmR9qCkekPqFIxb7rraWjkAtGKnfJ45VSIO2ajxiTscAQGnaSse/OKqVwxgWDbpwSBlSitShRSONzFqko1aoiYeM9cIqpK379MNeVq5vHid6olOvTxMINT9W9YYQMWmbtA3mUlhH90i/NIgQydQ9xSLqoa3KXJn0iybZqEpL2/2+Pb5EO2LfG7CuZyZw3YflyJEjsYRCQa0o4IKWjRgxAgms0uuqaQbLy8uxpFIvvPAClimBwsJC9P/IkSNiPcWh6JdOmwgiJqqKYMeoI45IFfrPxLcYV7J+2YOiEpod6BeWPXr0WLVq1S+//LJ1K44Qe/2inN26dcMy+Jg+fTriSohXuBOkKKz6xUx3sn45gv5cSJBfBsHlISWcIHMGH4MGDaIEnCA9QjDWr0wj61eGol+/fiJ19mzahGCsX5lG1q9MxP/8z/8sWbJErOhIjxAM6vXuu6sgYcwMIetXJqKwsFCkDKRXCMbIFNAzACpYv9IfkCpbiM0MRsqCnTiDkE5/fGQwAPbmDALrFyPNwN6cQWD9YqQZ2JszCKxfjDQDe3MGgfWLkWZgb84gsH4x0gzszRkE1i9GmoG9OYPA+sVIM7A3ZxBYvxhpBvbmDALrFyPNwN6cQWD9YqQZ2JszCKxfjDQDe/PZIUOG4KhmpBOGDh0q9i4jrcH6JV4JnQn4VodYSWtkzj7NcPBuZv1KQ7B+ZQh4N7N+pSFYvzIEvJtZv9IQrF8ZAt7NrF9pCNavDEGwdnNjY6N403UCAV8XqdggxuAHRI1+45AOseIHwt9HHgtEpX7Ar33qHWIMjMQiWPoFt5vx+n+kIu9Yt8cvJ0Y9qM1SfzDpY5iTQqMOp497nxEVAqdf/3rkp1QknNhH/UJtlvqDSX/1K1VGHU4f9z4jKqSPfj1w4DiKA1dWTpz/YeNlwyotGYi2TVxRMbb24PcWY1RMln7ZDgd0HxGmSKZd5ioi0brodMxwH7XTMN2JcaEgwbKJ6GSPlqxfyUL66Jcse+0dsx76+OQNs34779CPw+cuhYWOz24Dy/uOn07ZupQNaXtpLyTu2naosOSCS4eOSmn9wgAH/ubBC/sMRFodEQ18yIxHsbxx3lPnFBVXPr4OqwXnl1CprtfeMHvvXzBX41b9EVuHznwMdu9E66LTMcO7fqmDAmm3klHuVhra3Lf/hnTzgkIsVWdAGkNud3lvKiVnBlN364qtSN/76p+xxMxga9nEmcVdLqGqnMj6lSykoX6BFFPgAEYYQpuqn9w4qGYBpRccPnX/Ww044EcvfZ5KwelTWr9oiSMZQ1NHROmLB99MeTAJmBmkcWyTBUuaq7u3H6EAFhbvRH7R6ZjhXb8oTYPCiAbf8zAZw3crkfRLdQak23S9jNK0pJmZsOY1TMWsPcc6XT0IGof0bStf6nf7DJnTiaxfyUL66FdO83w6SaISqV/db/wVWeDTOM1S+pbF9f3vnA2XrVq2nlrs3HdwGugXhoyBqyOidMfe/bHE6shHV5MlXL+QRtBKFu9EftHpmBGtftGgsAcpEIMxfLcSpX5JZ0C616jbKU2baGagX1dVT8YqlI6mBW4zfM4TMqcTWb+ShfTRLxAxP2qYuPYNcj5YmmXn4FxK1cKPSy7qjjTO0lgOmDL36rHT4O5Ip/r1Iy1Jv9QR4YoJaQpVeo4cj7R6DFMpmitcIuEEQBbvRH7R6ZgRUb8I14y7Wx0UiJ5DjGBRdysSsizpFyidAWNX9UvOTLh+YSv5zLQXP6JKbMn6lSyklX4lkcnSr+QS+0t0OmY0bdQPvn8CfYCWQa8tmxJJ1q9kIXD6NWvPsVTklI1v+6hfqM1SfzDpr36lyqjD6ePeZ0QF1i9/yPoVI1i/GE1A4PTLEpmnCvn6MUak0KjDydePyQLrlz9k/YoRrF+MJiBN9Ov+txrU1bF1225dsRW8c/1e1e7OyRv2z337bw8cOF65ZC3KWra6M8H6teDwKYsFHP/cDouFJiGqsTz08UksPU5CgvUrIKMOJ+tXspBi+iX/Fm7huFV/VFdzmuerq1HxnKJii8ULE6xfE9a8ZrGAhSUXWCyWafFOj5OQYP0KyKjDyfqVLARXvwqK28079GOL1kVIl1zUHefGq8dOg37hVJmb33L+h43ZuXmz9/5l9NLnB9/zMFwWOWHMa1mA/NCvqmXrwRm7vpiweuesPccuH15FT/0gIrtr2yGky2uX49Rd8/LhgvNLqCF6pAhOjFX05MH3TwyfuxT1z9j9/26a/8xtK1+asukd6ls446Rfaj/lQNA9dOa+3V/CguGgV/mFranPmBC1qwOmzKV5QFrOIbJhDulMICdZDvb+vf8Fe/gkIKHOMBEZRKdjRgqNOpysX8lCEPULToaTKuQJCXK4QTULsIrrO1qFsyIBFeszZio5EPSLnki8ZXE9lpb4C/560XU34aig1SsqxpZNnEmVX1k5kR7pBKV+YYmejHx0NdllKy4PGfmuX33HT0f31H6iFRoIEhSJdLp6UGn3PrjeobGj/5auqpGInEMckFil0clJloOlWQqfBFCdYSIyiE7HjBQadThZv5KF4MZfcDIscf7Esn3PvljCj+FzSHTuOxhLZL57+xGconE2hstS/qKOXbGEfuGcSYTYLTh8Cmdj+Ci8EOfqiWvfmL7zM/g0nedJ7LC06Bdit2kvfqSf8F9BAgUrl6zFJlv6rl9UrdpPORDYEZtcf+8jSGAsOJJpCOgzZkPt6ti6bTQJSMs5pElu1a4DlnKS5WCnvfghLOGTcO+rf1ZnmIgMotMxI4VGHU7Wr2QhuPoF0lmRiEhepkHyTlC9p6vmV0mZaSvdqQVRUFbiVBB5qH6ZcGKc9AtU+ykTNAp1TmTapauUB5OsFpRjdyqo2i0ThapEp2NGCo06nKxfyUKg9ctfzjv0o8XiI+OnX77zqurJFkuTGT/98p0+jjqcrF/JQgbpV1yZQvrlI1NIv+JK1q9kIXD6lbrwUb9EjakA0emYkVqjDgfrV1LA8Zc/5PgrRqTQqMPJ8VeywPrlD1m/YgTrF6MJYP3yh6xfMYL1i9EEBF2/eoy47eqx0yxGC+m5LZWl3fuoqwsOn8prWdBr1O0Fxe1Uu4XUEFpUjR4Zb/2yjMiWlsfTwqeuz5ip3W/8Vcfe/d1/FkrPf97x+z+pRlvGW7+COepwsn4lCwHVLylJOc3zr5s2n9JTNx+ABpVc1J3eZH/Pjk/OKSqevGE/ZZabkKCXo182rLJL2RAk5I8/Hvr4JD1DBIemTdNe/AiV/Lp+N9IVC56lbBPXvkEJ74yTftFviWlE9DuB3lWT5h36cdSiNfRkL4hhdhtYjgSOZHUTpg4jkgPEwMcbP3Uern+Jh76yQ4OVcyWfZe/Qq4wSLoyTfgV81OFk/UoWgqhfzQsKs/VfeCANV5OnRJwhKQOdlttd3hvLMU9vJv1SNyGnFKMrKyfSg9qQNvjrlE3vVD6+jjaVTZxJj/L3HT999t6/yOcVwwO6iPRdvyas3okZyM1veW77zqgfI6JRFJZcUHvw+wcOHEcax3n1kxupA3P2f4MjWd2EqUNCDnBs3TbKiUm4ZMi/IEHPpmN+1LmSp5DRS5+nhAt916+UGHU4Wb+ShaDHX3BHnEspLfWLPp9Dp1+cY1X9ok3IKT9leEXF2NalF1KaNt00/xlKQ7AuH16FxPX3PnL39iNkBMn7o6Lv+kXVUiQCotv0Q5YWrYvk4+DYKq+eZu05Rkey3ERHshwglvQpHZDODfSjwgffP6HOVbPsHErTT3bc6bt+UbUBH3U4Wb+ShYDqlyS5I07CUCuLfsHVkMCFg61+YQmnJ5cFcdZFJXSxABacX0I137K4Hkb6hqA8KppwEo6TfkliRAOmzEVUggGqhyuWGAj9ONn2SFYHCK3HgQriohurmEAoNS7NkJZzJc8cdHpwZ5z0SzKYow4n61eyEHT9SiTp+9XydltUjLd+JZIUisrLKxfGW78SSe+jDifrV7LA+uUP00m/vDOd9CsWsn4lC6xf/pD1K0awfjGaANYvf8j6FSNYvxhNQLD0q7htKQ6JFEVjY6MYRmxAPaLGwKNtu1LR6ZiRQqO2hV97nxEVgqVfDAaD4R2sXwwGI1XB+sVgMFIVrF8MBiNVwfrFYDAYDAaDkVBw+MVgMBgMBoORUJjCr8bGxpR+fjQBKGlXys8pMhgMBoPBiAWm8KtB/wBf6v4GLd7EzGB++GduDAaDwWAwYkGiw6+7th2qXLJ21KI1Y57eLF+Z6Z3zP2ysfnIjik/Z9I5lUwLI4ReDwWAwGIzYkbjw65pxd6PybgPL7/j9n+599c/X3/sIVgtLLpAf/PHCc9t3zs1vaTEmjBx+MRgMBoPBiB0JCr9uXbEVNfcadbvFTqw9+D22NsvO6dCrjL4BM33nZ1hte2mvigXPtu/ZF1snrHnt6rHTcprnZ+fmXVExduqWg6Xd+8B+2bBKEImmfXM0KnL4xWAwGAwGI3YkKPz6df1uCpVoFUHVVdWTi7tcAiMiMwq/6BPxkoPvebioY1cEYa3adcBW+hjjOUXF9KW+kY+uhlF+gLlq2XqswkircSKHXwwGg8FgMGJH4v74WPn4OlTeonXRtXfMKq9d3m1gOVaBCWteo/BLvTc2ZMajsAyqWTBj1xddyoYgjeKwy/Brzv5vUBU4YuEqEImC4nZNeJgsKnL4xWAwGAwGI3Yk+tF7cP6HjYiTvDzy9eD7Jx76+KTFaOG8Qz+CFmOcyOEXg8FgMBiM2JGE8Ct1yeEXg8FgMBiM2GETfjHc4R5+HT9+vH///iJrVlazZs3y8vIWLlx4+vRpkYPBYDAYDEZmg+9+RUGXu1+/+93vWrZsqUdcjsjOzu7Ro8dHH30kyjAYDAaDwchIcPgVBS3hl+VGl3fwLTEGg8FgMDIZHH5FQQq/Fi1aFPFGl3fQLbG33377WwbDA06dOiUOVwaDwWCkLDj8ioIUfr3++utVVVVItGnTRgugmoq+ffsOGjQICdR28OBBcXZlMJxx5MgROAwS4ohlMBgMRmqCw68oSOGX/OMjgNNhVKGYGnKhrKiFwfAGBF5wHg6/GAwGI9XB4VcUDA+/VDiFYhxyMfwCh18MBoORHuDwKwq6h18qZCjGIRfDR3D4xWAwGOkBDr+ioPfwi8GIBzj8YjAYjPQAh19RkMMvRnLB4ReDwWCkBzj8ioIcfjGSCw6/GAwGIz3A4VcU5PCLkVxw+MVgMBjpAQ6/oiCHX4zkgsMvBoPBSA9w+BUFOfxiJBccfjEYDEZ6gMOvKMjhFyO54PCLwWAw0gOm8KuxsbGkXSn0neGEtu1KMUtivhiMxILDLwaDwUgPmMKvQOF3v/tdYWEhv7OUwZDg8IvBYDDSAwENv6ZOnarfbNLAERiDQeDwi8FgMNIDQQy/+vfvT4GXBEdgDAbA4ReDwWCkBwIXfnXo0IFCLgs4AmMwOPxiMBiM9ECAwq8zZ860bNmSgi1bcATGyHBw+MVgMBjpgaCEX8ePH8/OzqYwywUcgTEyGRx+MRgMRnogEOHXu+++S9GVF3AExshYcPjFYDAY6YFAhF8UV3lBz549sRTFGIwMA4dfDAaDkR4IRCjz3Xff5eXl6fGVG/r27Ysl3/1iZCw4/GIwGIz0QFDuJJ0+fbq4uFiPsuzBsReDweEXg8FgpAeC9Ye8Hj166LGWFRx7MRgAh18MBoORHgjcc1TV1dXNmjXTgy4Bjr0YDAKHXwwGg5EeCOJj7AsXLpQvoeDYi8GQ4PCLwWAw0gNBDL+AP/zhD4jArrzySo69GAwJDr8YDAYjPRDQ8At4++23W7RocfDgQbHOYGQ8OPxiMBiM9EBwwy8+0zAYFvBBwWAwGOkBDr8YjJQBHxQMBoORHuDwi8FIGfBBwWAwGOkBDr8YjJQBHxRpg8bGxtLSttibDAYj4MjNzX3ppZfEoesfOPxiMFIGfFCkDRoaGrArGxq2nj27n8lkBpY4SHGoPv300y1atPA3COPwi8FIGfBBkTbg8IvJTAlS+IUDFoctwi8fgzAOvxiMlAEfFGkDDr+YzJSgGn4R/ArCOPxiMFIGfFCkDTj8YjJTguHhFyH2IIzDLwYjZcAHRdoguvBr1yhkBgas2Gjd1AR+NWNA1qhdZ/dZ7So9t7irhjISeq74yrVaD0SFNbtQyfIaP2pLNjeuGBDVXvNl1KiE5tBit2W0PYyK1uEYO1dmiJ6aZ0byXl/pFH4RYgnCOPxiMFIGfFCkDbyHX0p8M+p1y5k1dCrSz3O7EFcRlHOeFmzpGDDjKzpphcIv+1Jqi3o27QwtICuhbDXLKS351YqeSh77gs529Md0ZkUTdpEBivdcsYICROqzbYWW0cmaPRbXxyKgxhBe2gqrliZK7gsddoGIXg+1FTmzUx5UklWzInzg4SOy9DBsZpz6IO3q7rMxKsOJYt702kzURiQyaN1Td6XYYOqJr3QPvwhNC8I4/GIwUgZ8UKQNorr7pQQ6+pnVPvyys9veKtBOk66l1BZDmam4UcRqD6O1ae1MaVdQ9kHLEBZsYWv4Kdmc06khy+icGnIqbjt1HtsKZTO3pdK2fvvxOmU2M5THYeD2lag9dO4tKIvb1mNfuTEcx51u7qqXmh27IfeFUdAnegm/CNEGYRx+MRgpAz4o0gaW8Eu5LYHTkfWWUpPDL/O9KINRhV8wmmqQZ2iUtQsUtMo1u33TYHQV2gYEphOtY0PWCmVVHosLalOhwXVQjjOp9l/LA4hVZbYVyj57zGybR1ZC2axzqI7IvNU0M071206Cw8wYPUFZ01bZqNaErQdKWms2vDfijvOL3sMvgvcgjMMvBiNlwAdF2qCpd7+085YpHTrj2p7GQnbtdEUFowq/TC3q9tA5TysedmoEQuf10FatcsVuU6FmV6MEnWhCjSSIWk4lSnBqSO+eOiKlocjFldmQMaV7W3YzqeW3hC9GhXKiqBtEY7xeMjvmcRi4NT9lVnpomRnX+ilbyKkcjaFW7HZ6qJRGtcUQ1bLq0HS7zb5Qy/rAxsbXSkuLtWajRG5u7okTJ8QBbwcOvxiMpOHrr78+evRot27dPv3002PHjgmrM/igSBtEFX5lDOXZWlhwng4LyLzTfGpnMhNIL/fMOPxiMJKJ0aNHL1y48JZbbhHrruCDIm3A4ZcD5Q0YaygWPTn8YiaNHH4xGGkFPijSBhx+MZlpTA6/GIy0Ah8UaQMOv5jMNGZAw68NGzaIlCv4TMNgWMAHRdogLPyqq83qV98QzV/K9o1DDUBF/RbrpqYw+g54olqtQxPaQMbtsz5w7UovRZpQbaIZw5xHPTpvbfnsVE2jTVf31WbV7gvyrrQycOHXgQMHqqurCwoKsNyzZ4+wOoDPNAyGBXxQpA0ihF8NtRXYbCD8xIOzkYEbcMIMZTCdlfU698mq7OqvqG1QM4fOeVvqZQ8seWwrBO37rFZrSRP61debIwnHsTsXCdEpj+1wFGqNUhEdtXUyENHSNplDMI3UfnKcWlcnJFIPNbrMQMTisi3HfipONW6vY4Wwy4nq9+/veJ43p90q7aFW1GkBbXviOIqAMIh3v9577z0sEYfRqgv4TMNgWMAHRdogirtfDvc5tJOldoZDQZfwy26TfYVKB7QzoppB1uPSlpmhTUq1Mm0p6KUeL0Wc8lgza6fz0CiIehBgGNVhmocczlDlDpPj1roxIY4TTqs6LfWoq25NSBptOfVTXxVO5dYfrfLQvbGmzZts1NpzouyqH66YJAYx/PIOPtMwGBbwQZE2cA2/tFMLIE5yDqeWJodfDfX97G6QKB1ATusND+pMhLbs+qxUa6StHTCdYu3rcS0i6JTHYbxmapmt/TTSypANS3gPrTmdem6i0RAym/KYQxydLjPgaYChQdn3k1aFU7n1xxzbeZ03bTV80hx6rtTj2BO3UQSBHH4xGGkFPijSBm7hl3ou0U5vgDyrhWiEX9oJSU/AqKdD5yGnU1TIrp3/RFmlA6Y69YbEKdD5nOfYZ7VamVbr1+r0UI9zkRCd8uh2eRbXmpBdMug1jHAfqe3kuLQuG1J7rk640ahGlxnwMMBQW0791FbtnMrSH21TqLjHefMwab65YjDI4RcjETh16hT2lFhJBhobG+HlmYBDhw5hqrEU64yEAA4mXM0/oFpdnWX4xcxAqnEGM63I4RfDB3z++efV1dVt2rQZNmzY3r17yYiQa9KkSUuWLOnSpcuf/vQnZCD7Bx98gGzt27efM2fOsmXL6CG/Y8eOjR07lmrYvx+uqeH06dOoYd26dT10rFy5kuzRgk5jd6zbM+P1/0h71rz0cdmvZ2BpsTPjR7hWRBltAjj8ynBqN3sA474OM83I4RcjVjz33HNDhw4VK2fPzpw5c/LkyUj88MMP2DsnT55EWt79QuYRI0Zo+XQgqNq6deumTZvKysqE6exZFEdkhgSVohqAa665Zvv27ZSOCnQaw2nyX4/8xGT6TrgWHIzDLyaT6Z1NCb+C83ecYP6dJR5/hggynnjiiTFjxoiVs2cXL148fvx4JBB+5efnk1GGX0899dTYsWPJCAwcOBDh16pVq9SY7Keffvrll1+QsPzJsry8nMOvprHnyPGYgd5Vk2j1oY9PNsvOuei6m2SGiLxt5Uuo4bpp8y12JsjhF5PJjJZRh1+kCAH5O04A/84Spz9DBBwvvPDCeeedN2zYsFatWi1atIiMtuEX8Morr3Tr1q1ly5aIwwYNGvTyyy/DiCCsbdu2Q4cObdOmzdSpUylnxPDrscceu/322yN+iJqcFnvHctbMEM7/sBHDz2mej2V57XJYKhY8i/StK7ZSBoRWXa+94Zyi4tLufUYtWkNG8JbF9W0v6XFu+87D5y69bFglisx9+28u+TOWcC1Mju9HPfltIMIv7bFl6+/smDExzlPa0JDaOyvV+++FTQy/MvZMFpFxEuK0wZdffomYDOHam2+++eCDD15yySV0oysW7N+/v3///gUFBQsXLpR/qVSR4U6L4AnDR8x0VfVkJCaufaO4yyUF55dg04LDp5BAZHb/Ww1YRXSFDIi0kEbUhQCr9uD3SN/88ErYu9/4K5f8mcx0D7+2NNg9+m38As5qZ3qg/ZT6RO2XgNEFdv78KtCvXwlE33+/mNhfRwYi/EKFFhSWXGDJI0mX8oFVfA6/koh//vOf69at69Sp04UXXogEVskeD6dNIeJokgdUu8t7awdYVtbQmY9hdcqmd5DuMeI22lq5ZC1Wr71j1oQ1ryHRZ8xUsveumoTVcav+6JSfVjOWiQq/tB/Si9OS+GU+nSpMpyvze5LcfpNvV5VRxO6n+1px5eRkhF/qSVfmV7vkVolBa34lj6m4coJ0GbWkQx71LOt4xrUdC6it2kwpTSPZtTqNtOm1C2q1+qqpddPAlZ1FBYmm4pEm06GrpjxIq+06FPE6Y5FeBuGpHkvfTN4li+i/S6C0j22F6jdvcnKwmBiU8KvrtTdYjA99fBIxVsWCZwf+5kFciF/YZyCu2mG3hF84JXQpG4LL9LaX9qIzCjjzza+vrJyIUw6MQ2Y8Skbw7u1HLhnyL8jcbWD5Hb//k7T7SA6/AoKTJ08uXLiwoKCgf//+W7dqXp6Z4detK7SxD5/zBK0++P6JvJYFsMw79CNZJm/YX9zlEliAkou6I8Aie3nt8mbZOTB27jsYRdp0vcw9fyYzMeGXdgIwzjEajTOKfh6yQpw2kMd0zhBnFKeqZJ5QfKCRTkuE0DlMO89plYROkK6nKPtKiNaCWsgi82gFw+MVt1EbdM6jn7B1mEcaouNYHKbUHGaF5sTaf4fhRNpkoZbTQHgeo0tOXXWZcMcikWfMNOqY6gn101SnKa1ki6EtF8fz4mAxMijhV3ZuXvOCQklcT1OYhfiJ8iBgwuqCw6fU8AuriKjuf6vhgQPHEaXBPnrp83S+GXzPw5QBZ5FJz7+F9E3zn6EMSM/Y9QXS/e+cjbS/JCG+//77sWQECq3bdbTsLCbTFyYm/LKcZvTTg3HKdDpPm+IY0DjBO1WlrWonLXG6spzYzA2Fh1/2PXGtxN5oWjX6bNlkW4+FXvKYTvYKnco6TWliwi8YI06mHJFTV5G2FJSrLkVCdJgxLbMx6pjqUe1KndZKjNVY2nKah/BNcWBw735Z7nIhgVUYVfsti+uRRhT10Mcnq5/ciHTVsvUgEjfM+i0VvP7eR25b+RIS102bD/uYpzfXHvwe4RoobwD4yDgJMSMqnDlzZsOGDT179iwoKJg9e/Z7772HnTJl49uz9hxjMn0nXCseR701/NKonVp06N8wDp2JtbOLAXm6Iiqb1DO3a1Xy7KXFWAI4FZlObDbhF6idC2X+yJUoDPWzttZy5lO6qn1BWW5yGbWkfR6lS7ad0Wk3Fp12U6plVgMFNW1pwmk45pwOp38vkynu3Gh7x66rgnKT5ePc9kU8zJg6arDJ9aj9V+vUB6v5hg7TcJrelvM8qJsAdWj+MCjhVzi8hF/3v9VAfwfJaZ4/YMpcJK4eOw32Cat3tmrXAasAArs5+7+hSm5+eCX95aVZds5V1ZPJ6C85/EoWfvjhh0WLFhUXF3fu3Pl3v/vdTz/9JDYYTsvhFzNOTFD4pZ2P5TlAOzHY3TnwRh+rigfjf+OBmYK0jzVTl4EIv9KJHH4lEkePHp00aVJeXt7gwYNfe+21//3f/xUbzGCnZcaVcTrqyW/Nd7+YTGaasInhF99IcGKcroMZsYCclsMvZpzI4ReTyYyWHH75TA6/AghyWjX8umfHJ/STvWkvfnT39iPS7pELDp+yWJw4/rkd9Iosd/5m6/uVS9aOWrRm6uYDlk3M4JPDLyaTGS2bGH7xjQQnxkmIGbEg3Gk79x2MCAyJtpf2mr33L9Luhc0LCiesec1idGJhyQXjVv3RYlR5ZeXETlcPevD9E7SKWK3g/JKRj66WGZjBJ4dfTKZHZsLr7D2Swy+fyeFXAKE67R2//9PwuUsv7DMQIdT19z6COAyJB949XlDcrrx2+bxDP45/bkeL1kU1Lx+esHpnyUXdZ+059sCB45cPr6JfdSADwq/bVr700Mcn79v9ZW5+S2Sb/2Hjnev3ZufmTdn0DoK5/MLWo5c+j5yD73kY7SL8ghF13jT/GeRE2byWBXTvbWzdtpzm+eQ5FjoVqT34PRrqXTUJGdB/xGroGNJoq6hjV2TAANU6Kf6jUldVT8ZwMMBm2Tl3bTsk8zBjZMqEX/xIe7RMtxmz/DgxwQzejzySSg6/fGaThfjYsWPbt2//9NNPxborNmzYIFIMD1CdtnLJ2k5XD+ozZurIR1d37N3/mnF3I1H26/ssb567snIiMg+qWYCwDJsuuu6myRv20y7GVnn3C+ERaoOltHsfhGK3rtiKmnuNup22ghcPvhnRj8V4y+L6S4eOQgKhEiIhRHJyE3j/Ww2wOBVBIIWxkNGSpqjLKfySOcGu194gP/jIjJ2JCr+0X37JaED7Ub34jb3+83jtV/paNsWOVfWEpxZ3KWJLU9PKe8JMJ1TNbm7aQw8lnboqVkM/eQuFRC6tS8qy1vplhfrrCWRbTt1wKSLp1E+xSa4qM+BlZlDWiJnoXRiUX6vfSJtee0FFQs0p+0upymn2vDbhMvlug/WwCzKFHH75zCYI8ZkzZ1q1anX06FGk//73vxcUFHz55Ze0KRwHDhyorq5GHiz37NkjrAxXqE674PApREtIzP+wUX6KZ/rOzxBjUYCFSKXkou7ltcsRWrXv2Zce86path5xGGVG8fHP7UCCbp6RceLaN9AEYpq7tx9B9FPz8mEY71y/F0ZEP1hF/dNe/AjG2Xv/UtSxK6JAKnjjvKcKzi+R32AYtWgNiqCgU5GI4Re9mYUKUq84/Io3Exl+2ZzdkTCds0MnOWtEop1BIxRxIJq2OfXq53UrjHq0PKK3Hppz7Kq2aj9w19YFrdWaqFVrQLTl2g37IgoddpDLJk87AmXV8EvuCMVuqd+0CZTVhuyOs+etCdfJN3cmNA/ho9NyGgifzzQnh18+swlC/MILL4wePVqsnD07derUmpoasWKH9957D0vEYbTKiAjVaR/6+CS9blcmJBFpIUxB+KIasSofzJJU71dhq6UIiKrCS1H9FM+FE/mjLeJC224z48Qkh192IYLIZooAvBWxpyWDsWqp30Ql/PLSnFNXtVVzfrnJrXWDtnlgVIMeNY8lv1x1KRKiQz9dNnnaETAaMZC32Mh5VSliPwTPTTgV1+iUUwm/YIw8n2lODr98ZhOEeNOmTbfccotY0cOv6dOnixWGH2CnZcaVSQ6/tFXtxCZgupuibvL0cnNwX61xjgxRbzriC8dDp2phVyIAlx5KhvL4+eJ7LZ4ghCrU/9pFgNE8saE6TTPmWkTSqZ/m/F73HRFljaFFFX7Z7C+1CGg3e16bcCgenlMZrLhnpv8109t8pjM5/PKZ3oX422+/nTx58uLFi3/55Zf27du//vrrMH7++ectW7Y8fvw45fnggw/++te/qgkGobGx8Z577snNzZ04ceLXX38trA5gp2XGlYkKvxLEhvpxyqmUmPCzY0beDvGPmRjNpBw5/PKZEYV427ZtXXQgIUwGTp06hVBMrDDs8MUXX5SXlxcVFdXV1Z05c4aM+/bt69+/f4sWLRYtWoSwjIwqyGkZjLjCXUabAPLbxIdfTCYzAeTwy2fahl90oys3N3fKlCnfffedsDI844033rhYBxLCZAcEZC+88EJHHUjI+IydlhlXRrzoahrIbzn8YjLTkhx++UxViF1udDEiAsFTXV1dUVFReXn5F198Iaye0djYuGjRohYtWvTv33/Lli3stMz4kcMvJpMZLTn88pkkxB07dsSS0WQgbCosLPzoo4+E28WGp59+GnXmF7SyvGGLyfSFHH4xmcxoyeGXz1SF+LPPPrv11ltzcnKwRJomMEb88MMPr7zyilhJd+zbt69v375FRUWLFi06ffq0sHoA/RXyqquuQhg3e/bs999/31+n7TlyvHzzak7z/PY9+148+GbJwfc8LHNaaHknajx49dhp4/TPHPUYcZt8nZgXYoos+S1vC7NQnQQnBm1y4kQOv5hMZrTk8MtnOgmxX6HYO++8k5+fL1YyBgin1qxZU1paevHFF7/00kvCagb9tbFNmzZdunSpq6tTwzVbp0UoYHn16OQN+7uUDSksuaBs4swbZv120vNvwXjvq3/ufuOvzikqxqaJa9+AZciMR7Nz8y7sM5AyIGKgcMfCeYd+7DXq9lGL1pRc1B28cd5TMKoRxq/rd6MPqLntpb3QHBnv2fHJZcMqYew2sFy+Zz+8DyCKtL2kR+vSC/uMmTrb+Gwl0hULnqU02KFXmcwviQDINmzCFFnCLwwBnaG0pTnLJBAnrN6JbhecXyJjrKRMzsw3v77ouptatC7qf+fsGbu+oGxxJYdfTCYzWnL45TO9CLEain3++eenTp1CYPHss88iYti9e/d5551Hb8CHPS8v76677vr2229hR/5PP/1Uhl9//etfW7Zs+eabb/7888/vvfcecn744Yc//fRT27Ztn3nmGVS1efNmVAWLbf0o2KNHD9R88uTJMWPGpNCbxk6cODF79uwWLVrcfPPNr732Gv2mYejQoTt27BA5wqA6LUKE5vpnhRA95Oa3ROLc9p1hR9SCc7bcj4gJqpatr3x8XfuefaXxysqJiMyQQCn17lfH3v0RFkhSEEC3jh44cJyylXbvg2hPRhiIYGSsM2f/N+gDtlY/ubHd5b3JCI55ejM22fbhtpUvtWrXYWzdtoc+PgnSe1lRJ1pU39E6eunzCGLkqjtR1hJ+ybtfts3JSRj/3A5ku/aOWeF/203K5MhVcPrOz7ArERGqRt/J4ReTyYyWHH75zCYI8Zw5cxA8tVKAkAJ2hE2oivIA5eXl27dvV+9+rVq16vrrr0f+a665BqEYtq5du3bs2LG0VcKp/n/7t39DWIZNI0aM+OCDDyhzWsLWaS13v4bPeaL7jb+SqwgaEH7dNP8ZNSZ78P0TlsgDRMRge4PH8pc7+s6PjDAQTCCgmbxhP1V4TlExtlYuWdttYLks8uv63bP2HLPtAzj37b9hddqLH11VPRlVIX339iPNsnNkThBDkJ9Fikj01in8sm1OnQTifbu/HPibBzGWy4dXkSUpk3PXtkOI2BDSoQjVEG9y+MVkMqMlh18+swlC/PXXXyMGogAIIVePHj2effZZSqMqPYsGS/i1ePHioUOH0qb9+/cjJ7b+13/9F7Z+/vnnMP71r39F+tixY7b1I3QrKyuj14xt3boVcZhWUZrCo9OOrdtW1LFrbn5LxGEX9hk45unNMGpfezy/BEEMgoDeVZMoZ8+R4xHojFq0BmlEDKhcBcUQ7hEGQofiLpe0vbQX4jwEK13KhiD+gx3NoSFkbtG6iOono6UP8z9sRNhRUNwORvqoNuVETImYg9Ig4pXRS5+Xq0RUPvLR1RYjSJ2XQFVyCLbNqZPgxKRMTuLJ4ReTyYyWHH75zCYLMSIhxEY///yzWPeGn376KbwIVWV5g6tt/VhFDWIlfeHFae/Z8QnO/bcsrp+wemf/O2ef3+nixNw48Z0IHO/efgSJ66bNV58DY8aPHH4xmcxoyeGXz4yTEDNiATstM67k8IvJZEZLDr98JodfAQQ7LTOu5PCLyWRGSw6/fCaHXwEEOy0zrsyc8KuhYYvFwkwzBm0Xx6k/QRgmh18+k8OvAMK70157x6ySi7pfWTlx5ptfWzZFxeFzl6q/yAunl4aumzY/N7/lFRVje1dNand576KOXe/b/aUlj0feumLrNePuRmLB4VMF55ek6GNtgWWyw6+62qys2n37wuxEbO1X3+C01Tu31FdkVdRHc9LaNy4ra9y+s+5Nu3c+cdyn9aPOYswwRrWL/fIrF3rpTxP8J3pPjg85/PKZHH4FELZOO27VH9V3Yj34/onLhlU2y87p3Hdw5ZK1PUeOl5suH16FuOeubYcG/ubB8c/t6NCrrE3Xy25b+ZLMULVs/YV9BhaWXNB3/PT5HzbCgjQiHiTCS6kN3bl+L/LcsrgeWwuK211VPZne7zBj1xfIgLJIS2JV/cUiGu109SA0hLiq9uD3ZAyvCkT/b354JaXBXqNup9ecMv1iCoZfpjNQQ32/rIraBoqT1JjJFD+pRUwtaoGLyGbNo9plcKPll825dN6xJ6Baud5/mw6YxxVqyNJJMTlK+BUyOpRyGY6knidkd+qY20A8FPe4vxxbNHdeFpGj1soq+1dbNajOkt7b8Alx24OSLm3J/uj1h/qpNm0ajjKBpmodZsah25b8jj2PlRx++UwOvwIIi9NeMuRfmhcU5ua3zM7NQwKkWKq8djm9+gux13XT5lPm0UufR5xExkuHjiIjQp+u195A6VbtOsj3Pkx78aPJG/Yj8DqnqJgstqVkQw99fBKtoxRlQJBHb17AVsRPZEQsKN9ZSuHXgsOnUL983fyv63cjCHOqalDNAsRbZCT2rprUZ8xU1cKMkSkXfulnKSuMU7V+TtJhrlOetKSFznwE7fxkCgvAhtoKOm/hBKbaTVW5dN6pJ6BlUKJCl3FZ+yYYqkc7+4aFX/al3IYjqRllt507Zj8Qz8VFEYI6S64tKjnt4xKqRMtpIDz+UHruOCH2fbOjbVumepQa1ElT02oRrcIIw3Tbj1qaEKnnTSeHXz6Tw68AwtZpLXe/wNalF05YvRPBTbPsnDn7vyHj+Z0urn5yI4IbGOVb2hGQwYgEKskvbE1GsPLxdbUHv0ecdP29j2DVqRQ1hARWZRgHDp+7tEvZECSuGXc3YkRpB+lFWdN3fob02Lpt9KZ+4l3bDiHYcqoKkdn453ZIOyhbZ/rFlAu/zGcjF1pPSCJtOW/J2izVylUZh5Hd1GH3zkuqPQEtpYxVl3HZbwpNjm34ZV/KbTiSWodDRseOOQzEa3ELzfvIS4umbEZxGG33L60KKrPkeUKUPWjQrS1ZxDwbatPWtuSq2W5bradugw49j5kcfvlMDr8CCC9Oi5im7SU9kED41b5n3zZdL+vQq6xyydq8lgUw3jT/GflO/KmbD5CRWF67HCFOp6sHlVzUHWHQjF1foC36a6BtKdkQEXFSwfklCLZateugvjEVgR1iLBRp0booOzfv0qGjpmx6R24dsXAVwj7646OMrmyrKu3eRw2/ENi5fPSa2TQGIfwKh3Eiwdaw8EujdlIxYMqg/wFIQD0biRsqeoyi5MEJTD1vyWr71ddbz3kCplsObp136ok4U9aifh1h9zAMmAeunW4JslehybEPv+xLgU7DkdQymPts2zGngXgsrtF5lpxblNnMoZXcxc77V9I8S2pbyoQ49y1El7ZEfx54xDwbatN6ep+xj+xdizLYDNOp26CXnsdIDr98JodficQnn3wyYsSIvLy8GTNmHD9+XFjDkMlOizhMvgv+outukl+qZvrIZIdfGUjTSTqVmTYDYUZNDr98JodfycL27duvuOKK4uLiZ5555h//+Iew6mCnZcaVHH4xmcxoyeGXz+TwK+lA7IUIDHEYojHEZLCw0zLjSg6/mExmtOTwy2eSEB89evRbRgDw6aefTpkyJTc3FzuFPqHNZPpODr+YTGa05PDLZ3L4FRz87W9/W79+fVlZGYVft9W9aNlZTKYv5PArsVSfvE5r2v/k0InaU+TGD/TiM0XR9SdmJri5hJPDL58ZJyFmeMRPP/20cuXKzp07t2nT5rHHHvvxxx9hZKdlxpUJDL9sf8xlfnzbetJy/G2XpPKOKMs526msfnaXPzezP9Nb8sguoU76USRABW1bcSpubBItOo7OeVCSzk2Efu2owZjbsJ7bZzNT5lG751YQvSKYfzoaoS1lHrQf9MkpcplGcykH33DsT+SylqYte8GpeJObSz1y+OUzOfxKPP7617/ef//9BQUFvXr12rhx45kzZ8QGA+y0zLgyQeGXzTsCaFU7Y9mHX3ahmPXM7XSPQTvfq3a1FecWQzTnCa1qfQi9RcmxFafilJbRj0MPnQZloksTCkNVmXtuoW2LXrqh5rHkdypub1e7Z0yRyxjd9q9Bp/5YO2DnV5YK1SJOTTs156WrKcgmhl93rNsDxWGGEzMTDyEOJtq3b//666+LFc+YOHHinj17Tp06hYkSpqbiscceq6ysPHjwoFh3ADstM66M01FPfivDLy3est5BoXOS43nOWsSVxouOjLsUqMdU1nJ2dzizhog86g0PWdx8qnZsxak40sYmtx4KWgdlolMT2ugAUVVodOaeO2ajrRod5t+xoPsuti2i0G6KQomwPB5mz6k/3vxK67O9kzg07Th8D11NRUYdfgGNjY0owHAC5kfMVDrigw8+GDZsWKdOnRYuXKiGX8eOHRs7dmybNm2wdf9++JaGZcuW9erVC5lramr+/ve/w7JkyZK8vLxBgwbt3bu3uroaltOnT0+aNGndunU9dKxcuVIvquHzzz9HHqoT+YW1SWCndcKXX375n//5n2KF0VTE46hHtbo6yz8+amcd5dWgAJ3PVLueDp2b9VV56tJOgWGBiHpe1E54MoNarR7HhE6BzmfWENUeqsW1apUgxqkVp+JUM3XSuYeOg1Lp0IS1LBBqzn7UpmzWJqiIFltQV90KqiNSuuepLa2sXfhlVGKdRufZC9GhP2Q3zbbb2DWqQ3Bs2rW5CF1NPTYl/GJkLNauXVtRUSFWzp7t2LEjhV+bNm0qKysjIzB58uQ5c+a8+uqryPDKK6+c0fHLL7/Q1latWql3vyhx8uRJ2nrNNdfQ2yKee+65oUOHkhGYOXMmqhUrDJ/Qr1+/nJycZs2a3XzzzcLECAzCwi8zTeezANJ89o2aMRb3wgQ0kXRmwhhTlRx+MaLAM888M3bsWLGih0oUfq1atWrEiBFkBH766ScEW8B///d/Y/Xzzz+/6667EIrRVtvwizYB5eXlFH498cQTY8aMISOwePHi8ePHixVGzPif//mfTp06LVmyBOnKysqSkpKqqiraxAgIOPzi8CtmcvgVXHL4xYgOGzZsOPfcc6+//nrEXv3795d/fNy6dWvbtm2HDh3apk2bqVOnwvLzzz8jJistLYVR/TPlxIkTc3Jy/s//+T/u4RfwwgsvnHfeecOGDUPEtmjRIjIyYsfRo0cLCwuxy8T62bOIvTgCCxoihF9MJjOVyeEXg5FZePnll3HMf/TRR2LdAEdgQQOHX0xmGpPDLwYjg7B06dLCwsLvvvtOrJvBEVigwOEXk5nG5PCLwcgUTJ8+vUuXLqdPnxbrduAILDhobGwsLW0HgWYwGGkJHODuP5rm8IvBSHmMHj26Z8+euNKKiOuvv/68887jCIzBYDCSCw6/GIyUx5dffvnaa6+9aMZTTz1FF2H19fXCpGPv3r0nTpwQJRkMBoORDHD4xWCkJ44cOULh17fffitMDAaDwQgGOPxiMNITHH4xGAxGYMHhF4ORnuDwi8FgMAILDr8YjPQEh18MBoMRWHD4xWCkJzj8YjAYjMCCwy8GIz3B4ReDwWAEFhx+MRjpCQ6/GAwGI7Dg8IvBSE9w+MVgMBiBBYdfDEZ6gsMvBoPBCCw4/GIw0hMcfjEYDEZgweEXg5Ge4PCLwWAwAgsOvxgaTp06hZM0I52wZ88eCr8QhwkTI8WB41QcsQwGI8XB4RfjLGSdT9LpB7r79d5774l1RoqDdigS4rhlMBipDA6/GCL8YllPM/BuTTPwDmUw0gkcfjFY1tMTvFvTDLxDGYx0AodfDJb19ATv1jQD71AGI53A4ReDZT09wbs1zcA7lMFIJ3D4xWBZT0/wbk0z8A5lMNIJHH45orGxsbhtKfSOkWC0bVeKyRe7IRhgZ4gHArijAd7XSURJIF2CwYgHOPxyRENDA+Rgxuv/8a9HfmImjJhwTDsmX+yGYICdwXcGc0cDvK+TxcC6BIMRD3D45Yikq/Ck598atWhN5ZK1v9n6PlkWHD5164qtkzfsl3kicsqmd1DkoY9PWuy2jCpznBhMCY6TM2CqMeF3rt9rsbswHvuoCX4VOwN7ro1lX09Y89odv/+TxRgnYn9hr1kI97Bkc2JSdro7A+sSDEY8wOGXI+J0xvXCKyrGoumrqifXvHwYat720l5YRSjWBMWkqmoPfm+x2zKqzHFiMCU4Ts6AqUa1Fw++2WJ3YZP3UU7z/K7X3mAxEjn8UhHLvkbBc4qKLcY4cermA+NW/RHMzs3LzW9JaXmpFpEcfjEYyQWHX46I0xk3IqGJaBexl8UOzv+wEZsuG1aJNJ25cTKmTTiFY5XsBeeXQI6vmza/+42/ghGAcfrOz5pl5yCSq1jwbPuefWHElbpTZqozKQymBMfJGWgnUvhFOxenUuwI7A6kC4rbUR7bfURlwx1gwuqdSMB/Kpes7di7P9LTXvzohlm/xd5HhZSfysLSoVcZCkq/snUSqt93BvZcG8u+RsHw8MtpT4EPvn+Cdu6gmgXIgMnHJuR3OlqRkHuNagARWDcvKJSrTs057XRssvUZtIgE+nbtHbMuHToK6byWBVePnYYiSPe7fQYKIoYr7d4HqzCSHZVTu01gYF2CwYgHOPxyRJzOuBF528qX0G7PkeOlBRpNF6lewq+Rj65GomrZerIjA1aRGenB9zxc1LEr9LdVuw4wjl76vEvmZDGYEhwnZ6CdSKdSdeeCdDKD0WkfOTkA7N0GliNN6Nx38P1vNcCu3v2isgjmaFVtOtxJKI/vDOy5NpZ9jYJRhV9RHa2WvSYZVfhlu9OxKdxnKPyi60C1TrUg9b/6yY1IgxgIVmGk1WgZWJdgMOIBDr8cEaczrhcOnfkYmi7ucsnwOU/gKhMSjGtQXBCrwofrzuzcPFw6j1v1R1wiww7APmvPMchxYckFY57ePHzuUrJDPYfMeBQJXGTP2PVFl7IhSFc+vs4ps+xJ4hlMCY6TM9BZzT38ctpHTg6A0zYS194x677dX15/7yNIYwk7XKiguB2dKandXqNup7Zk07ZOQnl8Z2DPtbHsaxTEzkLIIomwyWlPgQ8cOJ5f2BrBEw75HiNuo01OR6tlr0lawi+n5px2OtK2PuMl/Jqz/5sWrYvAEQtXgUjAx5AZm5rAwLoEgxEPcPjliDidcaPig++fmHfoR4tRJaQQeSxGEBJsa4cx/Kltp8xJYTAlOOnO4LSPnBwAexlnQWxVjchpsdjS1kl8Z2DPtXHa17Z76u7tRxBSI06iVQTiuNbCvqbVWHaEk2O40NZnPBIy5a5UXhhYl2Aw4gEOvxyR9DNuZjKYEszO4DsDe65N8L6evvOzvuOnXz68Crz+3keafOsoDRhYl2Aw4gEOvxxBKsxICoImwewMcUIAz7W8r5OLALoEgxEPcPjlCFJhvuGRYAbzCpidwXcG9lYH7+tkMbAuwWDEAxx+OYJVOCkMpgSzM/jOwJ5reV8ni4F1CQYjHuDwyxGswklhMCWYncF3BvZcy/s6WQysSzAY8QCHX47wRYV7jhzv/cWVhSUXyN9A2TKneX77nn0vHnyz5OB7Hrbk8YsXXXeTfOlAjxG3lXbvc/XYafT7c5knHgymBGeyM6g73UdPCOy5lvc1pRN51BMD6xIMRjzA4ZcjXFT43lf/3P3GX51TVNylbMjEtW9I+w2zftv2kh6tSy/sM2bq7L1/GTLj0ezcvAv7DJz0/FvY+uv63dBNlGp7aS/kpCKTN+xHJShy3bT5UoWnvfjRZcMqqX6UopwgVNhJpi1Nzzv0Y69Rt98476nzO10M4b5t5Usyp23n79nxCbXYbWA5veIVnaetqAftduzdv2LBs6iW3vdjW8Sp21ExmBKcyc4gd7p3TwAjOkNgz7W8r2H3d197ZGBdgsGIBzj8coSTClc+vg66JlevrJxYNnEmElC6Vu06jK3b9tDHJ0F6eU/zgkK6CIYyym/xztn/zbntO9+6YuvIR1dDxcgIojhEFnrXue9gaew7fjqaoDQJIpROkmQ0vGlcsDbLzsGSCuISlj4SYtv56ic3tru8tzSOeXozeogTRuWStWSBsJL6y+vg8CLDZj/u1O2oGEwJzmRnuG/3/6OdDnrxBIzIpduSgT3X8r6mVR/3tUcG1iUYjHiAwy9HqCp89/YjEFMQqnfT/Gcuuu4mKRkPvn+CBBfLuW//DQlcC15VPRmyiLRUYSgXLLhepMyQNqjw8LlLcT2KVWJp9z7Qu6EzH7t8eJU0Xn/vI/L7IU4XweFNQzGRWWYYMGUuaaJt5xFmqScDXL/O2nPMPfwKLzJwaq1Tt6NiMCU4k51h+s7PaaeDXjwBzuPSbcnAnmt5X9Oqj/vaIwPrEgxGPMDhlyNUFbawatn6gvNLcM0HhepdNYmM8z9shMAVFLeDXf41oefI8bgYHbVoDXSquMslbS/thatYqFWXsiHD5zyBDFC0/MLWna4eBAnu0KuMSt2yuL5F6yLkgYirD3lAWNElFSS14U2TYsKI5lC//JMHaNt5GLHa9dob0C56C4t7+AWGF3HqdlQMpgRnsjOoO92jJ4ARnSGw51re17TJx33tkYF1CQYjHuDwyxEuKhx8qoqZWgymBLMz+M7Anmt5XyeLgXUJBiMe4PDLESmtwqnLYEowO4PvDOy5lvd1shhYl2Aw4gEOvxxBKjxl49uz9hxjJoyY8ABKMDuD7wzmjgZ4XyeLgXUJBiMe4PDLEazCSWEwJZidwXcG9lzL+zpZDKxLMBjxAIdfjiAV5r9BJJjB/AMEO4PvDOxfmnhfJ4uBdQkGIx7g8MsRrMJJYTAlmJ3Bdwb2XMv7OlkMrEswGPEAh1+O8KjCDxw4Xvn4OvmOhibzzvV779v9pcWo0mND9+z4pGrZ+pGPrh7z9Ob5HzZatnpn7cHvf62/wHrB4VO3Ke/OjjeDKcHsDL47Q2DPtbyvk3Lgg4F1CQYjHuDwyxG2KnzDrN9O2fSOajmnqNgXkVLfs2XLiA0NqllwfqeLZ+05Ji2D73kYFrnqnTUvH1Zfbw1lb3tJD7kaVwZTgtkZ5KpfzhDYcy3va7mayAMfDKxLMBjxAIdfjlBV+KGPT+KiEOw2sHz00ucpDTuWEEdcbt7+76/RixCJ8hWI2bl5V1VPhjKOf25Hs+ycu7YdwtYH3z9RcH7J8LlL5x36EbW1aF0Ei1Rh21KyIRSZvfcvKHLT/GdwjQtdzmtZgBPDxLVvICcuWGUfLEQNBcXtymuXowZUixogtbZVIXN+YWvqquSAKXOvHjtNtcSJwZRgdga1uC/OENhzLe9rtXjCDnwwsC7BYMQDHH45QlVhSWjlrSu2qhaIIwT3jt//yVaFUYM0dr32Bio78tHV6idHiKoK25aihpDoM2Zqr1G3ywy3LK6/dOioqZsPoBR9gQTEKkqBufktqVTZxJkQ9+YFhZJXVk60rWrCGtMZhYiq6Gsq8WYwJZidQSWqit0ZAnuu5X2tElUl5sAHA+sSDEY8wOGXI2xVGIp276t/Vi0kjriIROZpL34EC65HkXZR4Rm7voDMUeb7dn+JNOr0rsK4eIWeUnFcxRZ17EoFsRV2uszFKq6hB9UsQFWTnn8Lq9N3foatkzfsRxpNlFzUHTltq8KVNIzID6PkkBmP9hw5XrXEicGUYHYGGCV9cYbAnmt5X8MombADHwysSzAY8QCHX46wVWF3QosffP+ExehEiB3U0OWvBu50KY5uOG2iUsgQblTzj39uB9Rfrt7/VgMu620r9J3BlGB2BrnqlzME9lzL+1quJvLABwPrEgxGPMDhlyOaoMLpRFwEVyx4FomHPj5ZNnGmuimuDKYEszP47gyBPdfyvk7KgQ8G1iUYjHiAwy9HZLgKJ4vBlGB2Bt8Z2HMt7+tkMbAuwWDEAxx+OYJVOCkMpgSzM/jOwJ5reV8ni4F1CQYjHuDwyxGkwnes2wNRYCaMmPAASjA7g+8M5o4GeF8ni4F1CQYjHuDwyw2NjY3QAkaCgWkXOyBIYGfwHcHc0QDv62QhsC7BYPgODr8YDAaDwWAwEgoOvxgMBoPBYDASCg6/GAwGg8FgMBIKDr8YDAaDwWAwEoizZ/9/xtfLithJJk8AAAAASUVORK5CYII=;" parent="1" vertex="1">
          <mxGeometry x="180" y="590" width="730" height="319.04" as="geometry" />
        </mxCell>
        <mxCell id="-FcrUgzOFvyiJ8CjGXV1-9" value="Enlace" style="swimlane;fontStyle=1;align=center;verticalAlign=top;childLayout=stackLayout;horizontal=1;startSize=26;horizontalStack=0;resizeParent=1;resizeParentMax=0;resizeLast=0;collapsible=1;marginBottom=0;whiteSpace=wrap;html=1;" parent="1" vertex="1">
          <mxGeometry x="200" y="170" width="160" height="112" as="geometry" />
        </mxCell>
        <mxCell id="-FcrUgzOFvyiJ8CjGXV1-10" value="&amp;nbsp;" style="text;strokeColor=none;fillColor=none;align=left;verticalAlign=top;spacingLeft=4;spacingRight=4;overflow=hidden;rotatable=0;points=[[0,0.5],[1,0.5]];portConstraint=eastwest;whiteSpace=wrap;html=1;" parent="-FcrUgzOFvyiJ8CjGXV1-9" vertex="1">
          <mxGeometry y="26" width="160" height="26" as="geometry" />
        </mxCell>
        <mxCell id="IsYPscSw2Du1v0Dft2cY-28" value="&amp;nbsp;" style="text;strokeColor=none;fillColor=none;align=left;verticalAlign=top;spacingLeft=4;spacingRight=4;overflow=hidden;rotatable=0;points=[[0,0.5],[1,0.5]];portConstraint=eastwest;whiteSpace=wrap;html=1;" vertex="1" parent="-FcrUgzOFvyiJ8CjGXV1-9">
          <mxGeometry y="52" width="160" height="26" as="geometry" />
        </mxCell>
        <mxCell id="-FcrUgzOFvyiJ8CjGXV1-11" value="" style="line;strokeWidth=1;fillColor=none;align=left;verticalAlign=middle;spacingTop=-1;spacingLeft=3;spacingRight=3;rotatable=0;labelPosition=right;points=[];portConstraint=eastwest;strokeColor=inherit;" parent="-FcrUgzOFvyiJ8CjGXV1-9" vertex="1">
          <mxGeometry y="78" width="160" height="8" as="geometry" />
        </mxCell>
        <mxCell id="-FcrUgzOFvyiJ8CjGXV1-12" value="&amp;nbsp;" style="text;strokeColor=none;fillColor=none;align=left;verticalAlign=top;spacingLeft=4;spacingRight=4;overflow=hidden;rotatable=0;points=[[0,0.5],[1,0.5]];portConstraint=eastwest;whiteSpace=wrap;html=1;" parent="-FcrUgzOFvyiJ8CjGXV1-9" vertex="1">
          <mxGeometry y="86" width="160" height="26" as="geometry" />
        </mxCell>
        <mxCell id="-FcrUgzOFvyiJ8CjGXV1-13" value="Ciudad" style="swimlane;fontStyle=1;align=center;verticalAlign=top;childLayout=stackLayout;horizontal=1;startSize=26;horizontalStack=0;resizeParent=1;resizeParentMax=0;resizeLast=0;collapsible=1;marginBottom=0;whiteSpace=wrap;html=1;" parent="1" vertex="1">
          <mxGeometry x="310" y="400" width="160" height="86" as="geometry" />
        </mxCell>
        <mxCell id="-FcrUgzOFvyiJ8CjGXV1-14" value="- estadoEspecifico" style="text;strokeColor=none;fillColor=none;align=left;verticalAlign=top;spacingLeft=4;spacingRight=4;overflow=hidden;rotatable=0;points=[[0,0.5],[1,0.5]];portConstraint=eastwest;whiteSpace=wrap;html=1;" parent="-FcrUgzOFvyiJ8CjGXV1-13" vertex="1">
          <mxGeometry y="26" width="160" height="26" as="geometry" />
        </mxCell>
        <mxCell id="-FcrUgzOFvyiJ8CjGXV1-15" value="" style="line;strokeWidth=1;fillColor=none;align=left;verticalAlign=middle;spacingTop=-1;spacingLeft=3;spacingRight=3;rotatable=0;labelPosition=right;points=[];portConstraint=eastwest;strokeColor=inherit;" parent="-FcrUgzOFvyiJ8CjGXV1-13" vertex="1">
          <mxGeometry y="52" width="160" height="8" as="geometry" />
        </mxCell>
        <mxCell id="-FcrUgzOFvyiJ8CjGXV1-16" value="+ funcInfoGeo()" style="text;strokeColor=none;fillColor=none;align=left;verticalAlign=top;spacingLeft=4;spacingRight=4;overflow=hidden;rotatable=0;points=[[0,0.5],[1,0.5]];portConstraint=eastwest;whiteSpace=wrap;html=1;" parent="-FcrUgzOFvyiJ8CjGXV1-13" vertex="1">
          <mxGeometry y="60" width="160" height="26" as="geometry" />
        </mxCell>
        <mxCell id="IsYPscSw2Du1v0Dft2cY-1" value="Industria" style="swimlane;fontStyle=1;align=center;verticalAlign=top;childLayout=stackLayout;horizontal=1;startSize=26;horizontalStack=0;resizeParent=1;resizeParentMax=0;resizeLast=0;collapsible=1;marginBottom=0;whiteSpace=wrap;html=1;" vertex="1" parent="1">
          <mxGeometry x="520" y="400" width="160" height="86" as="geometry" />
        </mxCell>
        <mxCell id="IsYPscSw2Du1v0Dft2cY-2" value="- estadoEspecifico" style="text;strokeColor=none;fillColor=none;align=left;verticalAlign=top;spacingLeft=4;spacingRight=4;overflow=hidden;rotatable=0;points=[[0,0.5],[1,0.5]];portConstraint=eastwest;whiteSpace=wrap;html=1;" vertex="1" parent="IsYPscSw2Du1v0Dft2cY-1">
          <mxGeometry y="26" width="160" height="26" as="geometry" />
        </mxCell>
        <mxCell id="IsYPscSw2Du1v0Dft2cY-3" value="" style="line;strokeWidth=1;fillColor=none;align=left;verticalAlign=middle;spacingTop=-1;spacingLeft=3;spacingRight=3;rotatable=0;labelPosition=right;points=[];portConstraint=eastwest;strokeColor=inherit;" vertex="1" parent="IsYPscSw2Du1v0Dft2cY-1">
          <mxGeometry y="52" width="160" height="8" as="geometry" />
        </mxCell>
        <mxCell id="IsYPscSw2Du1v0Dft2cY-4" value="+ funcInfoGeo()" style="text;strokeColor=none;fillColor=none;align=left;verticalAlign=top;spacingLeft=4;spacingRight=4;overflow=hidden;rotatable=0;points=[[0,0.5],[1,0.5]];portConstraint=eastwest;whiteSpace=wrap;html=1;" vertex="1" parent="IsYPscSw2Du1v0Dft2cY-1">
          <mxGeometry y="60" width="160" height="26" as="geometry" />
        </mxCell>
        <mxCell id="IsYPscSw2Du1v0Dft2cY-5" value="LugarTurismo" style="swimlane;fontStyle=1;align=center;verticalAlign=top;childLayout=stackLayout;horizontal=1;startSize=26;horizontalStack=0;resizeParent=1;resizeParentMax=0;resizeLast=0;collapsible=1;marginBottom=0;whiteSpace=wrap;html=1;" vertex="1" parent="1">
          <mxGeometry x="730" y="400" width="160" height="86" as="geometry" />
        </mxCell>
        <mxCell id="IsYPscSw2Du1v0Dft2cY-6" value="- estadoEspecifico" style="text;strokeColor=none;fillColor=none;align=left;verticalAlign=top;spacingLeft=4;spacingRight=4;overflow=hidden;rotatable=0;points=[[0,0.5],[1,0.5]];portConstraint=eastwest;whiteSpace=wrap;html=1;" vertex="1" parent="IsYPscSw2Du1v0Dft2cY-5">
          <mxGeometry y="26" width="160" height="26" as="geometry" />
        </mxCell>
        <mxCell id="IsYPscSw2Du1v0Dft2cY-7" value="" style="line;strokeWidth=1;fillColor=none;align=left;verticalAlign=middle;spacingTop=-1;spacingLeft=3;spacingRight=3;rotatable=0;labelPosition=right;points=[];portConstraint=eastwest;strokeColor=inherit;" vertex="1" parent="IsYPscSw2Du1v0Dft2cY-5">
          <mxGeometry y="52" width="160" height="8" as="geometry" />
        </mxCell>
        <mxCell id="IsYPscSw2Du1v0Dft2cY-8" value="+ funcInfoGeo()" style="text;strokeColor=none;fillColor=none;align=left;verticalAlign=top;spacingLeft=4;spacingRight=4;overflow=hidden;rotatable=0;points=[[0,0.5],[1,0.5]];portConstraint=eastwest;whiteSpace=wrap;html=1;" vertex="1" parent="IsYPscSw2Du1v0Dft2cY-5">
          <mxGeometry y="60" width="160" height="26" as="geometry" />
        </mxCell>
        <mxCell id="IsYPscSw2Du1v0Dft2cY-9" value="" style="endArrow=diamondThin;endFill=1;endSize=24;html=1;rounded=0;exitX=0.5;exitY=0;exitDx=0;exitDy=0;entryX=1;entryY=0.5;entryDx=0;entryDy=0;strokeColor=#000000;" edge="1" parent="1" source="IsYPscSw2Du1v0Dft2cY-19" target="-FcrUgzOFvyiJ8CjGXV1-2">
          <mxGeometry width="160" relative="1" as="geometry">
            <mxPoint x="580" y="120" as="sourcePoint" />
            <mxPoint x="740" y="120" as="targetPoint" />
            <Array as="points">
              <mxPoint x="600" y="60" />
            </Array>
          </mxGeometry>
        </mxCell>
        <mxCell id="IsYPscSw2Du1v0Dft2cY-11" value="" style="endArrow=diamondThin;endFill=1;endSize=24;html=1;rounded=0;exitX=0.5;exitY=0;exitDx=0;exitDy=0;entryX=0.5;entryY=1;entryDx=0;entryDy=0;entryPerimeter=0;" edge="1" parent="1" source="-FcrUgzOFvyiJ8CjGXV1-9" target="-FcrUgzOFvyiJ8CjGXV1-4">
          <mxGeometry width="160" relative="1" as="geometry">
            <mxPoint x="270" y="170" as="sourcePoint" />
            <mxPoint x="280" y="130" as="targetPoint" />
          </mxGeometry>
        </mxCell>
        <mxCell id="IsYPscSw2Du1v0Dft2cY-14" value="" style="endArrow=block;endSize=16;endFill=0;html=1;rounded=0;exitX=0.5;exitY=0;exitDx=0;exitDy=0;entryX=0.5;entryY=1;entryDx=0;entryDy=0;" edge="1" parent="1" source="-FcrUgzOFvyiJ8CjGXV1-13">
          <mxGeometry width="160" relative="1" as="geometry">
            <mxPoint x="380" y="350" as="sourcePoint" />
            <mxPoint x="600" y="300" as="targetPoint" />
            <Array as="points">
              <mxPoint x="390" y="340" />
              <mxPoint x="600" y="340" />
            </Array>
          </mxGeometry>
        </mxCell>
        <mxCell id="IsYPscSw2Du1v0Dft2cY-15" value="" style="endArrow=block;endSize=16;endFill=0;html=1;rounded=0;exitX=0.5;exitY=0;exitDx=0;exitDy=0;entryX=0.5;entryY=1;entryDx=0;entryDy=0;" edge="1" parent="1" source="IsYPscSw2Du1v0Dft2cY-5">
          <mxGeometry width="160" relative="1" as="geometry">
            <mxPoint x="400" y="410" as="sourcePoint" />
            <mxPoint x="600" y="300" as="targetPoint" />
            <Array as="points">
              <mxPoint x="810" y="340" />
              <mxPoint x="710" y="340" />
              <mxPoint x="600" y="340" />
            </Array>
          </mxGeometry>
        </mxCell>
        <mxCell id="IsYPscSw2Du1v0Dft2cY-16" value="Extends" style="endArrow=block;endSize=16;endFill=0;html=1;rounded=0;exitX=0.5;exitY=0;exitDx=0;exitDy=0;" edge="1" parent="1" source="IsYPscSw2Du1v0Dft2cY-1">
          <mxGeometry width="160" relative="1" as="geometry">
            <mxPoint x="650" y="380" as="sourcePoint" />
            <mxPoint x="600" y="300" as="targetPoint" />
          </mxGeometry>
        </mxCell>
        <mxCell id="IsYPscSw2Du1v0Dft2cY-19" value="&lt;i style=&quot;border-color: var(--border-color); font-weight: 400;&quot;&gt;&amp;lt;&amp;lt;Abstract&amp;gt;&amp;gt;&lt;/i&gt;&lt;br style=&quot;border-color: var(--border-color); font-weight: 400;&quot;&gt;&lt;b style=&quot;border-color: var(--border-color);&quot;&gt;Nodo&lt;/b&gt;" style="swimlane;fontStyle=1;align=center;verticalAlign=top;childLayout=stackLayout;horizontal=1;startSize=40;horizontalStack=0;resizeParent=1;resizeParentMax=0;resizeLast=0;collapsible=1;marginBottom=0;whiteSpace=wrap;html=1;" vertex="1" parent="1">
          <mxGeometry x="505" y="159" width="190" height="134" as="geometry" />
        </mxCell>
        <mxCell id="IsYPscSw2Du1v0Dft2cY-20" value="# estadoComun" style="text;strokeColor=none;fillColor=none;align=left;verticalAlign=top;spacingLeft=4;spacingRight=4;overflow=hidden;rotatable=0;points=[[0,0.5],[1,0.5]];portConstraint=eastwest;whiteSpace=wrap;html=1;" vertex="1" parent="IsYPscSw2Du1v0Dft2cY-19">
          <mxGeometry y="40" width="190" height="30" as="geometry" />
        </mxCell>
        <mxCell id="IsYPscSw2Du1v0Dft2cY-21" value="" style="line;strokeWidth=1;fillColor=none;align=left;verticalAlign=middle;spacingTop=-1;spacingLeft=3;spacingRight=3;rotatable=0;labelPosition=right;points=[];portConstraint=eastwest;strokeColor=inherit;" vertex="1" parent="IsYPscSw2Du1v0Dft2cY-19">
          <mxGeometry y="70" width="190" height="8" as="geometry" />
        </mxCell>
        <mxCell id="IsYPscSw2Du1v0Dft2cY-22" value="+ getEnlaces(): List &amp;lt;Enlace&amp;gt;" style="text;strokeColor=none;fillColor=none;align=left;verticalAlign=top;spacingLeft=4;spacingRight=4;overflow=hidden;rotatable=0;points=[[0,0.5],[1,0.5]];portConstraint=eastwest;whiteSpace=wrap;html=1;" vertex="1" parent="IsYPscSw2Du1v0Dft2cY-19">
          <mxGeometry y="78" width="190" height="26" as="geometry" />
        </mxCell>
        <mxCell id="IsYPscSw2Du1v0Dft2cY-25" value="&lt;i&gt;+ funcInfoGeo()&lt;/i&gt;" style="text;strokeColor=none;fillColor=none;align=left;verticalAlign=top;spacingLeft=4;spacingRight=4;overflow=hidden;rotatable=0;points=[[0,0.5],[1,0.5]];portConstraint=eastwest;whiteSpace=wrap;html=1;" vertex="1" parent="IsYPscSw2Du1v0Dft2cY-19">
          <mxGeometry y="104" width="190" height="30" as="geometry" />
        </mxCell>
        <mxCell id="IsYPscSw2Du1v0Dft2cY-32" value="" style="endArrow=open;html=1;edgeStyle=orthogonalEdgeStyle;rounded=0;endFill=0;" edge="1" parent="1">
          <mxGeometry relative="1" as="geometry">
            <mxPoint x="360" y="190" as="sourcePoint" />
            <mxPoint x="500" y="190" as="targetPoint" />
          </mxGeometry>
        </mxCell>
        <mxCell id="IsYPscSw2Du1v0Dft2cY-35" value="origen" style="edgeLabel;html=1;align=center;verticalAlign=middle;resizable=0;points=[];" vertex="1" connectable="0" parent="IsYPscSw2Du1v0Dft2cY-32">
          <mxGeometry x="0.7668" y="-1" relative="1" as="geometry">
            <mxPoint x="-8" y="-13" as="offset" />
          </mxGeometry>
        </mxCell>
        <mxCell id="IsYPscSw2Du1v0Dft2cY-36" value="" style="endArrow=open;html=1;edgeStyle=orthogonalEdgeStyle;rounded=0;endFill=0;" edge="1" parent="1">
          <mxGeometry relative="1" as="geometry">
            <mxPoint x="359.49" y="267" as="sourcePoint" />
            <mxPoint x="504" y="268" as="targetPoint" />
            <Array as="points">
              <mxPoint x="360" y="268" />
              <mxPoint x="504" y="268" />
            </Array>
          </mxGeometry>
        </mxCell>
        <mxCell id="IsYPscSw2Du1v0Dft2cY-37" value="destino" style="edgeLabel;html=1;align=center;verticalAlign=middle;resizable=0;points=[];" vertex="1" connectable="0" parent="IsYPscSw2Du1v0Dft2cY-36">
          <mxGeometry x="0.7668" y="-1" relative="1" as="geometry">
            <mxPoint x="-8" y="-13" as="offset" />
          </mxGeometry>
        </mxCell>
        <mxCell id="IsYPscSw2Du1v0Dft2cY-38" value="0..*" style="endArrow=open;html=1;endSize=12;startArrow=diamondThin;startSize=14;startFill=0;edgeStyle=orthogonalEdgeStyle;align=left;verticalAlign=bottom;rounded=0;" edge="1" parent="1">
          <mxGeometry x="0.858" y="-6" relative="1" as="geometry">
            <mxPoint x="500" y="226" as="sourcePoint" />
            <mxPoint x="360" y="225.70999999999998" as="targetPoint" />
            <mxPoint as="offset" />
          </mxGeometry>
        </mxCell>
        <mxCell id="IsYPscSw2Du1v0Dft2cY-39" value="&lt;font style=&quot;font-size: 10px;&quot;&gt;enlaces&lt;/font&gt;" style="text;html=1;align=center;verticalAlign=middle;resizable=0;points=[];autosize=1;strokeColor=none;fillColor=none;" vertex="1" parent="1">
          <mxGeometry x="365" y="218" width="60" height="30" as="geometry" />
        </mxCell>
        <mxCell id="IsYPscSw2Du1v0Dft2cY-40" value="*" style="text;html=1;align=center;verticalAlign=middle;resizable=0;points=[];autosize=1;strokeColor=none;fillColor=none;" vertex="1" parent="1">
          <mxGeometry x="575" y="129" width="30" height="30" as="geometry" />
        </mxCell>
        <mxCell id="IsYPscSw2Du1v0Dft2cY-41" value="*" style="text;html=1;align=center;verticalAlign=middle;resizable=0;points=[];autosize=1;strokeColor=none;fillColor=none;" vertex="1" parent="1">
          <mxGeometry x="250" y="150" width="30" height="30" as="geometry" />
        </mxCell>
      </root>
    </mxGraphModel>
  </diagram>
</mxfile>
